<svg width="975" height="313" fill="none" xmlns="http://www.w3.org/2000/svg"><path fill="#F7F7F7" d="M0 0h975v313H0z"/><circle cx="493" cy="170" r="103" fill="#333293" fill-opacity=".9"/><path d="M454.803 165v-1.68h-6.699V150.3h-1.827V165h8.526zm11.265-1.575c-.483 0-.693-.147-.693-.714v-4.683c0-2.499-1.575-3.864-4.305-3.864-2.583 0-4.284 1.239-4.536 3.339h1.722c.21-1.092 1.218-1.806 2.73-1.806 1.68 0 2.667.84 2.667 2.226v.735h-3.15c-2.814 0-4.305 1.197-4.305 3.339 0 1.953 1.596 3.129 3.948 3.129 1.848 0 2.919-.819 3.591-1.785.021 1.05.504 1.659 1.932 1.659h.945v-1.575h-.546zm-2.415-2.793c0 1.785-1.239 3.024-3.381 3.024-1.428 0-2.331-.714-2.331-1.764 0-1.218.861-1.785 2.394-1.785h3.318v.525zm9.954-6.468c-1.806 0-2.898.756-3.528 1.575l-.231-1.449h-1.491V165h1.722v-5.355c0-2.415 1.218-3.906 3.234-3.906 1.869 0 2.898 1.176 2.898 3.402V165h1.722v-5.964c0-3.549-1.911-4.872-4.326-4.872zm15.384 1.974c-.672-1.197-1.869-1.974-3.675-1.974-2.961 0-5.145 2.205-5.145 5.481 0 3.486 2.184 5.481 5.145 5.481 1.806 0 2.961-.756 3.675-1.974v1.26c0 2.331-1.218 3.381-3.465 3.381-1.785 0-2.982-.756-3.276-2.1h-1.764c.273 2.352 2.184 3.633 4.914 3.633 3.675 0 5.313-1.764 5.313-4.851V154.29h-1.491l-.231 1.848zm-3.507 7.455c-2.121 0-3.549-1.617-3.549-3.948s1.428-3.948 3.549-3.948c2.1 0 3.528 1.638 3.528 3.99 0 2.289-1.428 3.906-3.528 3.906zm15.492-3.948c0 2.415-1.176 3.906-3.129 3.906-1.785 0-2.793-1.176-2.793-3.402v-5.859h-1.722v5.964c0 3.549 1.869 4.872 4.221 4.872 1.764 0 2.793-.756 3.423-1.554l.231 1.428h1.491v-10.71h-1.722v5.355zm13.96 3.78c-.483 0-.693-.147-.693-.714v-4.683c0-2.499-1.575-3.864-4.305-3.864-2.583 0-4.284 1.239-4.536 3.339h1.722c.21-1.092 1.218-1.806 2.73-1.806 1.68 0 2.667.84 2.667 2.226v.735h-3.15c-2.814 0-4.305 1.197-4.305 3.339 0 1.953 1.596 3.129 3.948 3.129 1.848 0 2.919-.819 3.591-1.785.021 1.05.504 1.659 1.932 1.659h.945v-1.575h-.546zm-2.415-2.793c0 1.785-1.239 3.024-3.381 3.024-1.428 0-2.331-.714-2.331-1.764 0-1.218.861-1.785 2.394-1.785h3.318v.525zm13.147-4.494c-.672-1.197-1.869-1.974-3.675-1.974-2.961 0-5.145 2.205-5.145 5.481 0 3.486 2.184 5.481 5.145 5.481 1.806 0 2.961-.756 3.675-1.974v1.26c0 2.331-1.218 3.381-3.465 3.381-1.785 0-2.982-.756-3.276-2.1h-1.764c.273 2.352 2.184 3.633 4.914 3.633 3.675 0 5.313-1.764 5.313-4.851V154.29h-1.491l-.231 1.848zm-3.507 7.455c-2.121 0-3.549-1.617-3.549-3.948s1.428-3.948 3.549-3.948c2.1 0 3.528 1.638 3.528 3.99 0 2.289-1.428 3.906-3.528 3.906zm12.93 1.533c2.478 0 4.242-1.575 4.662-3.717h-1.743c-.357 1.386-1.533 2.184-3.045 2.184-2.037 0-3.318-1.428-3.381-3.465v-.147h8.316c.021-.252.042-.504.042-.735-.084-3.171-2.058-5.082-5.082-5.082s-5.082 2.226-5.082 5.481c0 3.276 2.1 5.481 5.313 5.481zm-3.402-6.573c.168-1.743 1.617-2.877 3.192-2.877 1.785 0 3.045 1.029 3.213 2.877h-6.405zM464.416 197h1.785v-11.592L471.073 197h1.617l4.872-11.592V197h1.785v-14.7h-2.268l-5.145 12.201-5.208-12.201h-2.31V197zm22.883.126c3.129 0 5.313-2.226 5.313-5.481s-2.184-5.481-5.313-5.481c-3.129 0-5.313 2.226-5.313 5.481s2.184 5.481 5.313 5.481zm0-1.533c-2.121 0-3.549-1.659-3.549-3.948 0-2.289 1.428-3.948 3.549-3.948s3.549 1.659 3.549 3.948c0 2.289-1.428 3.948-3.549 3.948zm16.15-7.665c-.651-1.029-1.869-1.764-3.675-1.764-2.961 0-5.145 2.205-5.145 5.481 0 3.486 2.184 5.481 5.145 5.481 1.806 0 2.961-.861 3.675-1.848l.231 1.722h1.491v-14.7h-1.722v5.628zm-3.507 7.665c-2.121 0-3.549-1.617-3.549-3.948s1.428-3.948 3.549-3.948c2.1 0 3.528 1.638 3.528 3.99 0 2.289-1.428 3.906-3.528 3.906zm12.929 1.533c2.478 0 4.242-1.575 4.662-3.717h-1.743c-.357 1.386-1.533 2.184-3.045 2.184-2.037 0-3.318-1.428-3.381-3.465v-.147h8.316c.021-.252.042-.504.042-.735-.084-3.171-2.058-5.082-5.082-5.082s-5.082 2.226-5.082 5.481c0 3.276 2.1 5.481 5.313 5.481zm-3.402-6.573c.168-1.743 1.617-2.877 3.192-2.877 1.785 0 3.045 1.029 3.213 2.877h-6.405zM520.107 197h1.722v-14.7h-1.722V197z" fill="#F1F1F7"/><path d="M106.428 96h1.827v-5.649h3.822c2.94 0 4.872-1.785 4.872-4.536 0-2.751-1.932-4.515-4.872-4.515h-5.649V96zm5.502-13.02c1.932 0 3.15 1.092 3.15 2.835 0 1.743-1.239 2.856-3.171 2.856h-3.654V82.98h3.675zm12.091 2.31c-1.911 0-2.73.798-3.234 1.617l-.231-1.617h-1.491V96h1.722v-5.46c0-1.701.609-3.57 2.856-3.57h.861v-1.68h-.483zm6.715 10.836c3.129 0 5.313-2.226 5.313-5.481s-2.184-5.481-5.313-5.481c-3.129 0-5.313 2.226-5.313 5.481s2.184 5.481 5.313 5.481zm0-1.533c-2.121 0-3.549-1.659-3.549-3.948 0-2.289 1.428-3.948 3.549-3.948s3.549 1.659 3.549 3.948c0 2.289-1.428 3.948-3.549 3.948zm19.657-9.429c-1.911 0-3.066.882-3.717 2.037-.609-1.365-1.89-2.037-3.381-2.037-1.659 0-2.562.819-3.129 1.596l-.231-1.47h-1.491V96h1.722v-5.649c0-2.142 1.071-3.612 2.835-3.612 1.638 0 2.583 1.092 2.583 3.192V96h1.722v-5.733c0-2.184 1.092-3.528 2.877-3.528 1.617 0 2.541 1.092 2.541 3.192V96h1.722v-6.174c0-3.381-1.827-4.662-4.053-4.662zm12.079 0c-1.806 0-2.961.861-3.675 1.848l-.231-1.722h-1.491v14.91h1.722v-5.838c.651 1.029 1.869 1.764 3.675 1.764 2.961 0 5.145-2.205 5.145-5.481 0-3.486-2.184-5.481-5.145-5.481zm-.168 9.429c-2.1 0-3.528-1.638-3.528-3.99 0-2.289 1.428-3.906 3.528-3.906 2.121 0 3.549 1.617 3.549 3.948s-1.428 3.948-3.549 3.948zm8.375-1.386c0 1.89.735 2.793 2.793 2.793h1.869v-1.575h-1.701c-.924 0-1.239-.336-1.239-1.239v-6.321h2.772V85.29h-2.772v-3.003h-1.722v3.003h-1.932v1.575h1.932v6.342z" fill="#262626"/><rect x="105" y="112" width="223" height="109" rx="4" fill="#EBEBF8"/><rect x="115" y="124" width="203" height="8" rx="4" fill="#333293" fill-opacity=".4"/><rect x="115" y="140" width="203" height="8" rx="4" fill="#333293" fill-opacity=".4"/><rect x="115" y="156" width="203" height="8" rx="4" fill="#333293" fill-opacity=".4"/><rect x="115" y="172" width="203" height="8" rx="4" fill="#333293" fill-opacity=".4"/><path d="M648.84 61.191c.105 2.898 2.205 4.935 5.796 4.935 3.087 0 5.229-1.785 5.229-4.326 0-2.856-2.457-3.654-4.851-4.053-2.205-.378-3.99-.735-3.99-2.499 0-1.575 1.281-2.415 3.192-2.415 1.995 0 3.36 1.113 3.57 2.814h1.89c-.168-2.646-2.184-4.473-5.46-4.473-2.982 0-5.019 1.68-5.019 4.179 0 2.856 2.436 3.633 4.809 4.032 2.226.378 4.032.756 4.032 2.583 0 1.596-1.407 2.499-3.381 2.499-2.247 0-3.78-1.302-3.927-3.276h-1.89zm21.009-.546c0 2.415-1.176 3.906-3.129 3.906-1.785 0-2.793-1.176-2.793-3.402V55.29h-1.722v5.964c0 3.549 1.869 4.872 4.221 4.872 1.764 0 2.793-.756 3.423-1.554L670.08 66h1.491V55.29h-1.722v5.355zm16.438-5.481c-1.911 0-3.066.882-3.717 2.037-.609-1.365-1.89-2.037-3.381-2.037-1.659 0-2.562.819-3.129 1.596l-.231-1.47h-1.491V66h1.722v-5.649c0-2.142 1.071-3.612 2.835-3.612 1.638 0 2.583 1.092 2.583 3.192V66h1.722v-5.733c0-2.184 1.092-3.528 2.877-3.528 1.617 0 2.541 1.092 2.541 3.192V66h1.722v-6.174c0-3.381-1.827-4.662-4.053-4.662zm18.631 0c-1.911 0-3.066.882-3.717 2.037-.609-1.365-1.89-2.037-3.381-2.037-1.659 0-2.562.819-3.129 1.596l-.231-1.47h-1.491V66h1.722v-5.649c0-2.142 1.071-3.612 2.835-3.612 1.638 0 2.583 1.092 2.583 3.192V66h1.722v-5.733c0-2.184 1.092-3.528 2.877-3.528 1.617 0 2.541 1.092 2.541 3.192V66h1.722v-6.174c0-3.381-1.827-4.662-4.053-4.662zm16.153 9.261c-.483 0-.693-.147-.693-.714v-4.683c0-2.499-1.575-3.864-4.305-3.864-2.583 0-4.284 1.239-4.536 3.339h1.722c.21-1.092 1.218-1.806 2.73-1.806 1.68 0 2.667.84 2.667 2.226v.735h-3.15c-2.814 0-4.305 1.197-4.305 3.339 0 1.953 1.596 3.129 3.948 3.129 1.848 0 2.919-.819 3.591-1.785.021 1.05.504 1.659 1.932 1.659h.945v-1.575h-.546zm-2.415-2.793c0 1.785-1.239 3.024-3.381 3.024-1.428 0-2.331-.714-2.331-1.764 0-1.218.861-1.785 2.394-1.785h3.318v.525zm9.661-6.342c-1.911 0-2.73.798-3.234 1.617l-.231-1.617h-1.491V66h1.722v-5.46c0-1.701.609-3.57 2.856-3.57h.861v-1.68h-.483zm5.586 10.773l-.525 1.302c-.399 1.008-.567 1.26-1.554 1.26h-1.533V70.2h2.058c1.512 0 1.911-.672 2.583-2.394l4.935-12.516h-1.827l-3.192 8.547-3.297-8.547h-1.827l4.179 10.773zm16.02-9.261h-2.373v1.449h2.163l-.399 2.772h-2.226v1.449h2.016L748.558 66h1.428l.546-3.528h2.877L752.863 66h1.428l.546-3.528h2.373v-1.449h-2.163l.399-2.772h2.226v-1.449h-2.016l.546-3.528h-1.428l-.546 3.528h-2.877l.546-3.528h-1.428l-.546 3.528zm4.095 1.449l-.399 2.772h-2.877l.399-2.772h2.877zm8.381-5.355c0 .735-.336 1.26-1.029 1.26h-2.394v1.575h2.373c.462 0 .798-.084 1.008-.273V66h1.764V51.3h-1.722v1.596z" fill="#262626"/><path d="M648 237h-76" stroke="#000" stroke-width="1.5" stroke-linecap="round" stroke-dasharray="0.5 8"/><rect x="648" y="82" width="223" height="48" rx="4" fill="#EBEBF8"/><rect x="658" y="94" width="203" height="8" rx="4" fill="#333293"/><rect x="658" y="110" width="113" height="8" rx="4" fill="#333293"/><path d="M388 167h-60" stroke="#000" stroke-width="1.5" stroke-linecap="round" stroke-dasharray="0.5 8"/><path d="M648.84 192.191c.105 2.898 2.205 4.935 5.796 4.935 3.087 0 5.229-1.785 5.229-4.326 0-2.856-2.457-3.654-4.851-4.053-2.205-.378-3.99-.735-3.99-2.499 0-1.575 1.281-2.415 3.192-2.415 1.995 0 3.36 1.113 3.57 2.814h1.89c-.168-2.646-2.184-4.473-5.46-4.473-2.982 0-5.019 1.68-5.019 4.179 0 2.856 2.436 3.633 4.809 4.032 2.226.378 4.032.756 4.032 2.583 0 1.596-1.407 2.499-3.381 2.499-2.247 0-3.78-1.302-3.927-3.276h-1.89zm21.009-.546c0 2.415-1.176 3.906-3.129 3.906-1.785 0-2.793-1.176-2.793-3.402v-5.859h-1.722v5.964c0 3.549 1.869 4.872 4.221 4.872 1.764 0 2.793-.756 3.423-1.554l.231 1.428h1.491v-10.71h-1.722v5.355zm16.438-5.481c-1.911 0-3.066.882-3.717 2.037-.609-1.365-1.89-2.037-3.381-2.037-1.659 0-2.562.819-3.129 1.596l-.231-1.47h-1.491V197h1.722v-5.649c0-2.142 1.071-3.612 2.835-3.612 1.638 0 2.583 1.092 2.583 3.192V197h1.722v-5.733c0-2.184 1.092-3.528 2.877-3.528 1.617 0 2.541 1.092 2.541 3.192V197h1.722v-6.174c0-3.381-1.827-4.662-4.053-4.662zm18.631 0c-1.911 0-3.066.882-3.717 2.037-.609-1.365-1.89-2.037-3.381-2.037-1.659 0-2.562.819-3.129 1.596l-.231-1.47h-1.491V197h1.722v-5.649c0-2.142 1.071-3.612 2.835-3.612 1.638 0 2.583 1.092 2.583 3.192V197h1.722v-5.733c0-2.184 1.092-3.528 2.877-3.528 1.617 0 2.541 1.092 2.541 3.192V197h1.722v-6.174c0-3.381-1.827-4.662-4.053-4.662zm16.153 9.261c-.483 0-.693-.147-.693-.714v-4.683c0-2.499-1.575-3.864-4.305-3.864-2.583 0-4.284 1.239-4.536 3.339h1.722c.21-1.092 1.218-1.806 2.73-1.806 1.68 0 2.667.84 2.667 2.226v.735h-3.15c-2.814 0-4.305 1.197-4.305 3.339 0 1.953 1.596 3.129 3.948 3.129 1.848 0 2.919-.819 3.591-1.785.021 1.05.504 1.659 1.932 1.659h.945v-1.575h-.546zm-2.415-2.793c0 1.785-1.239 3.024-3.381 3.024-1.428 0-2.331-.714-2.331-1.764 0-1.218.861-1.785 2.394-1.785h3.318v.525zm9.661-6.342c-1.911 0-2.73.798-3.234 1.617l-.231-1.617h-1.491V197h1.722v-5.46c0-1.701.609-3.57 2.856-3.57h.861v-1.68h-.483zm5.586 10.773l-.525 1.302c-.399 1.008-.567 1.26-1.554 1.26h-1.533v1.575h2.058c1.512 0 1.911-.672 2.583-2.394l4.935-12.516h-1.827l-3.192 8.547-3.297-8.547h-1.827l4.179 10.773zm16.02-9.261h-2.373v1.449h2.163l-.399 2.772h-2.226v1.449h2.016l-.546 3.528h1.428l.546-3.528h2.877l-.546 3.528h1.428l.546-3.528h2.373v-1.449h-2.163l.399-2.772h2.226v-1.449h-2.016l.546-3.528h-1.428l-.546 3.528h-2.877l.546-3.528h-1.428l-.546 3.528zm4.095 1.449l-.399 2.772h-2.877l.399-2.772h2.877zm5.336 7.749h10.122v-1.617h-7.686l4.41-3.738c1.743-1.491 3.171-2.877 3.171-5.082 0-2.646-1.848-4.389-5.019-4.389-2.961 0-4.914 1.974-4.914 4.746v.378h1.764v-.273c0-2.016 1.26-3.276 3.15-3.276 1.953 0 3.213 1.05 3.213 2.898 0 1.596-1.134 2.73-2.499 3.906l-5.712 4.956V197z" fill="#262626"/><rect x="648" y="213" width="223" height="48" rx="4" fill="#EBEBF8"/><circle cx="648" cy="237" fill="#333293" r="7"/><path d="M651.471 236.946a.57.57 0 00-.049-.234.71.71 0 00-.147-.205l-3.803-3.721a.547.547 0 00-.401-.161c-.104 0-.2.026-.288.078a.568.568 0 00-.21.2.577.577 0 00.103.699l3.428 3.344-3.428 3.345a.579.579 0 00-.103.698.544.544 0 00.21.205.556.556 0 00.288.078c.16 0 .293-.055.401-.166l3.803-3.72a.723.723 0 00.147-.205.571.571 0 00.049-.235z" fill="#FBFBFB"/><rect x="658" y="225" width="203" height="8" rx="4" fill="#333293"/><path d="M646 106h-69" stroke="#000" stroke-width="1.5" stroke-linecap="round" stroke-dasharray="0.5 8"/><rect x="658" y="241" width="163" height="8" rx="4" fill="#333293"/><circle cx="648" cy="106" fill="#333293" r="7"/><path d="M651.471 105.946a.57.57 0 00-.049-.234.71.71 0 00-.147-.205l-3.803-3.721a.547.547 0 00-.401-.161c-.104 0-.2.026-.288.078a.568.568 0 00-.21.2.577.577 0 00.103.699l3.428 3.344-3.428 3.345a.579.579 0 00-.103.698.544.544 0 00.21.205.556.556 0 00.288.078c.16 0 .293-.055.401-.166l3.803-3.72a.723.723 0 00.147-.205.571.571 0 00.049-.235z" fill="#FBFBFB"/><circle cx="390" cy="167" fill="#333293" r="7"/><path d="M393.471 166.946a.57.57 0 00-.049-.234.71.71 0 00-.147-.205l-3.803-3.721a.547.547 0 00-.401-.161c-.104 0-.2.026-.288.078a.568.568 0 00-.21.2.577.577 0 00.103.699l3.428 3.344-3.428 3.345a.579.579 0 00-.103.698.544.544 0 00.21.205.556.556 0 00.288.078c.16 0 .293-.055.401-.166l3.803-3.72a.723.723 0 00.147-.205.571.571 0 00.049-.235z" fill="#FBFBFB"/><rect x="115" y="188" width="102" height="21" rx="10" fill="#333293"/><path d="M125.952 203h1.218v-9.8h-1.218v9.8zm7.009-7.224c-1.204 0-1.932.504-2.352 1.05l-.154-.966h-.994V203h1.148v-3.57c0-1.61.812-2.604 2.156-2.604 1.246 0 1.932.784 1.932 2.268V203h1.148v-3.976c0-2.366-1.274-3.248-2.884-3.248zm8.838 4.872c.028 1.568 1.302 2.436 3.15 2.436 1.582 0 2.856-.826 2.856-2.156 0-1.582-1.302-1.89-2.926-2.086-1.036-.126-1.792-.224-1.792-1.008 0-.658.672-1.078 1.666-1.078.98 0 1.652.546 1.736 1.274h1.176c-.112-1.484-1.288-2.24-2.912-2.254-1.61-.014-2.8.84-2.8 2.142 0 1.484 1.274 1.806 2.87 2.002 1.064.126 1.848.196 1.848 1.092 0 .658-.714 1.092-1.722 1.092-1.19 0-1.932-.616-1.974-1.456h-1.176zm12.838-1.218c0 1.61-.784 2.604-2.086 2.604-1.19 0-1.862-.784-1.862-2.268v-3.906h-1.148v3.976c0 2.366 1.246 3.248 2.814 3.248 1.176 0 1.862-.504 2.282-1.036l.154.952h.994v-7.14h-1.148v3.57zm11.239-3.654c-1.274 0-2.044.588-2.478 1.358-.406-.91-1.26-1.358-2.254-1.358-1.106 0-1.708.546-2.086 1.064l-.154-.98h-.994V203h1.148v-3.766c0-1.428.714-2.408 1.89-2.408 1.092 0 1.722.728 1.722 2.128V203h1.148v-3.822c0-1.456.728-2.352 1.918-2.352 1.078 0 1.694.728 1.694 2.128V203h1.148v-4.116c0-2.254-1.218-3.108-2.702-3.108zm12.701 0c-1.274 0-2.044.588-2.478 1.358-.406-.91-1.26-1.358-2.254-1.358-1.106 0-1.708.546-2.086 1.064l-.154-.98h-.994V203h1.148v-3.766c0-1.428.714-2.408 1.89-2.408 1.092 0 1.722.728 1.722 2.128V203h1.148v-3.822c0-1.456.728-2.352 1.918-2.352 1.078 0 1.694.728 1.694 2.128V203h1.148v-4.116c0-2.254-1.218-3.108-2.702-3.108zm11.048 6.174c-.322 0-.462-.098-.462-.476v-3.122c0-1.666-1.05-2.576-2.87-2.576-1.722 0-2.856.826-3.024 2.226h1.148c.14-.728.812-1.204 1.82-1.204 1.12 0 1.778.56 1.778 1.484v.49h-2.1c-1.876 0-2.87.798-2.87 2.226 0 1.302 1.064 2.086 2.632 2.086 1.232 0 1.946-.546 2.394-1.19.014.7.336 1.106 1.288 1.106h.63v-1.05h-.364zm-1.61-1.862c0 1.19-.826 2.016-2.254 2.016-.952 0-1.554-.476-1.554-1.176 0-.812.574-1.19 1.596-1.19h2.212v.35zm6.721-4.228c-1.274 0-1.82.532-2.156 1.078l-.154-1.078h-.994V203h1.148v-3.64c0-1.134.406-2.38 1.904-2.38h.574v-1.12h-.322zm4.004 7.182l-.35.868c-.266.672-.378.84-1.036.84h-1.022v1.05h1.372c1.008 0 1.274-.448 1.722-1.596l3.29-8.344h-1.218l-2.128 5.698-2.198-5.698h-1.218l2.786 7.182zm5.252-5.992c0 .476.336.784.798.784s.798-.308.798-.784c0-.476-.336-.784-.798-.784s-.798.308-.798.784zm0 5.25c0 .476.336.784.798.784s.798-.308.798-.784c0-.476-.336-.784-.798-.784s-.798.308-.798.784z" fill="#FBFBFB"/></svg>