<svg width="975" height="459" fill="none" xmlns="http://www.w3.org/2000/svg"><path fill="#F7F7F7" d="M0 0h975v459H0z"/><path d="M696 332h-73" stroke="#000" stroke-width="1.5" stroke-linecap="round" stroke-dasharray="0.5 8"/><circle cx="536" cy="332" r="87" fill="#333293" fill-opacity=".9"/><path d="M502.217 335.17c.084 2.94 2.289 4.956 5.943 4.956 3.234 0 5.439-1.827 5.439-4.473.021-2.898-2.352-3.675-4.788-4.116-2.31-.399-3.822-.714-3.822-2.226 0-1.386 1.155-2.1 2.814-2.1 1.785 0 2.961 1.008 3.15 2.499h2.415c-.105-2.709-2.205-4.536-5.565-4.536-3.129 0-5.229 1.743-5.229 4.305 0 2.919 2.31 3.696 4.746 4.116 2.331.42 3.864.756 3.864 2.31 0 1.407-1.26 2.184-3.003 2.184-2.058 0-3.402-1.155-3.528-2.877l-2.436-.042zm18.8 4.956c2.667 0 4.473-1.617 4.851-3.738H523.6c-.315 1.197-1.323 1.89-2.709 1.89-1.785 0-2.94-1.197-3.003-3.024v-.147h8.106a6.16 6.16 0 00.063-.861c-.063-3.15-2.142-5.124-5.25-5.124-3.171 0-5.292 2.205-5.292 5.523 0 3.297 2.121 5.481 5.502 5.481zm-3.045-6.678c.168-1.533 1.407-2.499 2.856-2.499 1.575 0 2.688.903 2.877 2.499h-5.733zm20.166 4.578c-.462 0-.693-.147-.693-.693v-4.305c0-2.541-1.638-3.906-4.494-3.906-2.709 0-4.515 1.302-4.746 3.402h2.226c.168-.945 1.071-1.575 2.415-1.575 1.491 0 2.352.735 2.352 1.932v.651h-2.709c-3.003 0-4.599 1.239-4.599 3.444 0 1.995 1.638 3.15 3.99 3.15 1.743 0 2.835-.756 3.549-1.848 0 1.071.504 1.722 1.974 1.722h1.197v-1.974h-.462zm-2.94-2.436c-.021 1.659-1.113 2.772-3.003 2.772-1.239 0-1.995-.63-1.995-1.533 0-1.092.777-1.617 2.184-1.617h2.814v.378zm10.497-6.342c-1.764 0-2.625.714-3.171 1.617l-.252-1.617h-2.016V340h2.268v-5.397c0-1.659.651-3.234 2.667-3.234h1.008v-2.121h-.504zm6.745 10.878c2.751 0 4.578-1.533 4.998-3.969h-2.394c-.273 1.239-1.197 2.037-2.583 2.037-1.827 0-3.024-1.449-3.024-3.549 0-2.121 1.197-3.591 3.024-3.591 1.407 0 2.31.777 2.604 2.037h2.373c-.441-2.436-2.163-3.969-4.935-3.969-3.255 0-5.397 2.205-5.397 5.523 0 3.36 2.079 5.481 5.334 5.481zm12.803-11.004c-1.68 0-2.709.756-3.381 1.68V325.3h-2.268V340h2.268v-5.439c0-2.163 1.092-3.486 2.877-3.486 1.68 0 2.583 1.092 2.583 3.129V340h2.268v-5.985c0-3.591-1.953-4.893-4.347-4.893z" fill="#F1F1F7"/><rect x="477" y="157" width="40" height="40" rx="4" fill="#EBEBF8"/><rect x="477.5" y="157.5" width="39" height="39" rx="3.5" stroke="#917EF3" stroke-opacity=".25"/><rect x="516" y="157" width="40" height="40" rx="4" fill="#EBEBF8"/><rect x="516.5" y="157.5" width="39" height="39" rx="3.5" stroke="#917EF3" stroke-opacity=".25"/><rect x="555" y="157" width="40" height="40" rx="4" fill="#EBEBF8"/><rect x="555.5" y="157.5" width="39" height="39" rx="3.5" stroke="#917EF3" stroke-opacity=".25"/><rect x="104" y="261" width="40" height="40" rx="4" fill="#EBEBF8"/><rect x="104.5" y="261.5" width="39" height="39" rx="3.5" stroke="#917EF3" stroke-opacity=".25"/><rect x="143" y="261" width="40" height="40" rx="4" fill="#EBEBF8"/><rect x="143.5" y="261.5" width="39" height="39" rx="3.5" stroke="#917EF3" stroke-opacity=".25"/><rect x="182" y="261" width="40" height="40" rx="4" fill="#EBEBF8"/><rect x="182.5" y="261.5" width="39" height="39" rx="3.5" stroke="#917EF3" stroke-opacity=".25"/><rect x="437" y="40" width="197" height="40" rx="4" fill="#EBEBF8"/><rect x="437.5" y="40.5" width="196" height="39" rx="3.5" stroke="#917EF3" stroke-opacity=".25"/><rect x="104" y="312" width="40" height="40" rx="4" fill="#EBEBF8"/><rect x="104.5" y="312.5" width="39" height="39" rx="3.5" stroke="#917EF3" stroke-opacity=".25"/><rect x="143" y="312" width="40" height="40" rx="4" fill="#EBEBF8"/><rect x="143.5" y="312.5" width="39" height="39" rx="3.5" stroke="#917EF3" stroke-opacity=".25"/><rect x="182" y="312" width="40" height="40" rx="4" fill="#EBEBF8"/><rect x="182.5" y="312.5" width="39" height="39" rx="3.5" stroke="#917EF3" stroke-opacity=".25"/><rect x="104" y="363" width="40" height="40" rx="4" fill="#EBEBF8"/><rect x="104.5" y="363.5" width="39" height="39" rx="3.5" stroke="#917EF3" stroke-opacity=".25"/><rect x="143" y="363" width="40" height="40" rx="4" fill="#EBEBF8"/><rect x="143.5" y="363.5" width="39" height="39" rx="3.5" stroke="#917EF3" stroke-opacity=".25"/><rect x="182" y="363" width="40" height="40" rx="4" fill="#EBEBF8"/><rect x="182.5" y="363.5" width="39" height="39" rx="3.5" stroke="#917EF3" stroke-opacity=".25"/><path d="M536 245v-48M437 332h-58" stroke="#000" stroke-width="1.5" stroke-linecap="round" stroke-dasharray="0.5 8"/><rect x="697.5" y="245.5" width="173" height="173" rx="3.5" stroke="#2B2649"/><path d="M536 131V81" stroke="#000" stroke-width="1.5" stroke-linecap="round" stroke-dasharray="0.5 8"/><path d="M704.5 333a6.5 6.5 0 11-13 0 6.5 6.5 0 0113 0z" fill="#333293" stroke="#333293"/><path d="M701.471 332.946a.57.57 0 00-.049-.234.71.71 0 00-.147-.205l-3.803-3.721a.547.547 0 00-.401-.161c-.104 0-.2.026-.288.078a.568.568 0 00-.21.2.577.577 0 00.103.699l3.428 3.344-3.428 3.345a.579.579 0 00-.103.698.544.544 0 00.21.205.556.556 0 00.288.078c.16 0 .293-.055.401-.166l3.803-3.72a.723.723 0 00.147-.205.571.571 0 00.049-.235z" fill="#FBFBFB"/><path d="M455.5 332a6.5 6.5 0 11-13 0 6.5 6.5 0 0113 0z" fill="#333293" stroke="#333293"/><path d="M452.471 331.946a.57.57 0 00-.049-.234.71.71 0 00-.147-.205l-3.803-3.721a.547.547 0 00-.401-.161c-.104 0-.2.026-.288.078a.568.568 0 00-.21.2.577.577 0 00.103.699l3.428 3.344-3.428 3.345a.579.579 0 00-.103.698.544.544 0 00.21.205.556.556 0 00.288.078c.16 0 .293-.055.401-.166l3.803-3.72a.723.723 0 00.147-.205.571.571 0 00.049-.235z" fill="#FBFBFB"/><path d="M542.5 246a6.5 6.5 0 11-13 0 6.5 6.5 0 0113 0z" fill="#333293" stroke="#333293"/><path d="M536.054 249.471a.57.57 0 00.234-.049.71.71 0 00.205-.147l3.721-3.803a.547.547 0 00.161-.401c0-.104-.026-.2-.078-.288a.568.568 0 00-.2-.21.577.577 0 00-.699.103l-3.344 3.428-3.345-3.428a.579.579 0 00-.698-.103.544.544 0 00-.205.21.556.556 0 00-.078.288c0 .16.055.293.166.401l3.72 3.803a.723.723 0 00.205.147c.072.032.15.049.235.049z" fill="#FBFBFB"/><path d="M484.786 148.88c-.42 0-.658-.126-.924-.476.686-.868 1.078-2.002 1.078-3.304 0-2.884-1.918-4.984-4.676-4.984s-4.676 2.1-4.676 4.984 1.918 4.984 4.676 4.984c1.078 0 2.044-.322 2.8-.896l.098.14c.35.476.742.672 1.484.672h.896v-1.12h-.756zm-4.522.084c-2.044 0-3.43-1.61-3.43-3.864 0-2.254 1.386-3.864 3.43-3.864 2.044 0 3.43 1.61 3.43 3.864 0 .868-.21 1.652-.588 2.268l-.308-.42c-.35-.476-.7-.686-1.358-.686h-1.022v1.12h.826c.35 0 .588.14.854.49l.266.364c-.56.462-1.274.728-2.1.728zm11.66-2.534c0 1.61-.784 2.604-2.086 2.604-1.19 0-1.862-.784-1.862-2.268v-3.906h-1.148v3.976c0 2.366 1.246 3.248 2.814 3.248 1.176 0 1.862-.504 2.282-1.036l.154.952h.994v-7.14h-1.148v3.57zm6.563 3.654c1.652 0 2.828-1.05 3.108-2.478h-1.162c-.238.924-1.022 1.456-2.03 1.456-1.358 0-2.212-.952-2.254-2.31v-.098h5.544c.014-.168.028-.336.028-.49-.056-2.114-1.372-3.388-3.388-3.388s-3.388 1.484-3.388 3.654c0 2.184 1.4 3.654 3.542 3.654zm-2.268-4.382c.112-1.162 1.078-1.918 2.128-1.918 1.19 0 2.03.686 2.142 1.918h-4.27zm10.676-2.842c-1.274 0-1.82.532-2.156 1.078l-.154-1.078h-.994V150h1.148v-3.64c0-1.134.406-2.38 1.904-2.38h.574v-1.12h-.322zm4.004 7.182l-.35.868c-.266.672-.378.84-1.036.84h-1.022v1.05h1.372c1.008 0 1.274-.448 1.722-1.596l3.29-8.344h-1.218l-2.128 5.698-2.198-5.698h-1.218l2.786 7.182zm9.784-.042h6.426v-1.12h-5.208v-3.304h4.186v-1.12h-4.186v-3.136h5.026v-1.12h-6.244v9.8zm16.151-7.224c-1.274 0-2.044.588-2.478 1.358-.406-.91-1.26-1.358-2.254-1.358-1.106 0-1.708.546-2.086 1.064l-.154-.98h-.994V150h1.148v-3.766c0-1.428.714-2.408 1.89-2.408 1.092 0 1.722.728 1.722 2.128V150h1.148v-3.822c0-1.456.728-2.352 1.918-2.352 1.078 0 1.694.728 1.694 2.128V150h1.148v-4.116c0-2.254-1.218-3.108-2.702-3.108zm8.333 0c-1.204 0-1.974.574-2.45 1.232V140.2h-1.148v9.8h.994l.154-1.092c.434.686 1.246 1.176 2.45 1.176 1.974 0 3.43-1.47 3.43-3.654 0-2.324-1.456-3.654-3.43-3.654zm-.112 6.286c-1.4 0-2.352-1.092-2.352-2.66 0-1.526.952-2.604 2.352-2.604 1.414 0 2.366 1.078 2.366 2.632s-.952 2.632-2.366 2.632zm8.704 1.022c1.652 0 2.828-1.05 3.108-2.478h-1.162c-.238.924-1.022 1.456-2.03 1.456-1.358 0-2.212-.952-2.254-2.31v-.098h5.544c.014-.168.028-.336.028-.49-.056-2.114-1.372-3.388-3.388-3.388s-3.388 1.484-3.388 3.654c0 2.184 1.4 3.654 3.542 3.654zm-2.268-4.382c.112-1.162 1.078-1.918 2.128-1.918 1.19 0 2.03.686 2.142 1.918h-4.27zm13-1.75c-.434-.686-1.246-1.176-2.45-1.176-1.974 0-3.43 1.47-3.43 3.654 0 2.324 1.456 3.654 3.43 3.654 1.204 0 1.974-.574 2.45-1.232l.154 1.148h.994v-9.8h-1.148v3.752zm-2.338 5.11c-1.414 0-2.366-1.078-2.366-2.632s.952-2.632 2.366-2.632c1.4 0 2.352 1.092 2.352 2.66 0 1.526-.952 2.604-2.352 2.604zm11.237-5.11c-.434-.686-1.246-1.176-2.45-1.176-1.974 0-3.43 1.47-3.43 3.654 0 2.324 1.456 3.654 3.43 3.654 1.204 0 1.974-.574 2.45-1.232l.154 1.148h.994v-9.8h-1.148v3.752zm-2.338 5.11c-1.414 0-2.366-1.078-2.366-2.632s.952-2.632 2.366-2.632c1.4 0 2.352 1.092 2.352 2.66 0 1.526-.952 2.604-2.352 2.604zm6.198-7.406c.42 0 .742-.308.742-.742a.721.721 0 00-.742-.742.721.721 0 00-.742.742c0 .434.322.742.742.742zm-.588 8.344h1.148v-7.14h-1.148V150zm6.781-7.224c-1.204 0-1.932.504-2.352 1.05l-.154-.966h-.994V150h1.148v-3.57c0-1.61.812-2.604 2.156-2.604 1.246 0 1.932.784 1.932 2.268V150h1.148v-3.976c0-2.366-1.274-3.248-2.884-3.248zm10.536 1.316c-.448-.798-1.246-1.316-2.45-1.316-1.974 0-3.43 1.47-3.43 3.654 0 2.324 1.456 3.654 3.43 3.654 1.204 0 1.974-.504 2.45-1.316v.84c0 1.554-.812 2.254-2.31 2.254-1.19 0-1.988-.504-2.184-1.4h-1.176c.182 1.568 1.456 2.422 3.276 2.422 2.45 0 3.542-1.176 3.542-3.234v-6.79h-.994l-.154 1.232zm-2.338 4.97c-1.414 0-2.366-1.078-2.366-2.632s.952-2.632 2.366-2.632c1.4 0 2.352 1.092 2.352 2.66 0 1.526-.952 2.604-2.352 2.604zM252.28 241.32h3.178V250h1.218v-8.68h3.178v-1.12h-7.574v1.12zm11.231 8.764c1.652 0 2.828-1.05 3.108-2.478h-1.162c-.238.924-1.022 1.456-2.03 1.456-1.358 0-2.212-.952-2.254-2.31v-.098h5.544c.014-.168.028-.336.028-.49-.056-2.114-1.372-3.388-3.388-3.388s-3.388 1.484-3.388 3.654c0 2.184 1.4 3.654 3.542 3.654zm-2.268-4.382c.112-1.162 1.078-1.918 2.128-1.918 1.19 0 2.03.686 2.142 1.918h-4.27zm6.315 4.298h1.302l2.086-2.87 2.086 2.87h1.372l-2.73-3.668 2.548-3.472h-1.302l-1.918 2.646-1.89-2.646h-1.372l2.534 3.472-2.716 3.668zm8.821-1.862c0 1.26.49 1.862 1.862 1.862h1.246v-1.05h-1.134c-.616 0-.826-.224-.826-.826v-4.214h1.848v-1.05h-1.848v-2.002h-1.148v2.002h-1.288v1.05h1.288v4.228zM104.952 250h6.426v-1.12h-5.208v-3.304h4.186v-1.12h-4.186v-3.136h5.026v-1.12h-6.244v9.8zm16.151-7.224c-1.274 0-2.044.588-2.478 1.358-.406-.91-1.26-1.358-2.254-1.358-1.106 0-1.708.546-2.086 1.064l-.154-.98h-.994V250h1.148v-3.766c0-1.428.714-2.408 1.89-2.408 1.092 0 1.722.728 1.722 2.128V250h1.148v-3.822c0-1.456.728-2.352 1.918-2.352 1.078 0 1.694.728 1.694 2.128V250h1.148v-4.116c0-2.254-1.218-3.108-2.702-3.108zm8.333 0c-1.204 0-1.974.574-2.45 1.232V240.2h-1.148v9.8h.994l.154-1.092c.434.686 1.246 1.176 2.45 1.176 1.974 0 3.43-1.47 3.43-3.654 0-2.324-1.456-3.654-3.43-3.654zm-.112 6.286c-1.4 0-2.352-1.092-2.352-2.66 0-1.526.952-2.604 2.352-2.604 1.414 0 2.366 1.078 2.366 2.632s-.952 2.632-2.366 2.632zm8.703 1.022c1.652 0 2.828-1.05 3.108-2.478h-1.162c-.238.924-1.022 1.456-2.03 1.456-1.358 0-2.212-.952-2.254-2.31v-.098h5.544c.014-.168.028-.336.028-.49-.056-2.114-1.372-3.388-3.388-3.388s-3.388 1.484-3.388 3.654c0 2.184 1.4 3.654 3.542 3.654zm-2.268-4.382c.112-1.162 1.078-1.918 2.128-1.918 1.19 0 2.03.686 2.142 1.918h-4.27zm13-1.75c-.434-.686-1.246-1.176-2.45-1.176-1.974 0-3.43 1.47-3.43 3.654 0 2.324 1.456 3.654 3.43 3.654 1.204 0 1.974-.574 2.45-1.232l.154 1.148h.994v-9.8h-1.148v3.752zm-2.338 5.11c-1.414 0-2.366-1.078-2.366-2.632s.952-2.632 2.366-2.632c1.4 0 2.352 1.092 2.352 2.66 0 1.526-.952 2.604-2.352 2.604zm11.238-5.11c-.434-.686-1.246-1.176-2.45-1.176-1.974 0-3.43 1.47-3.43 3.654 0 2.324 1.456 3.654 3.43 3.654 1.204 0 1.974-.574 2.45-1.232l.154 1.148h.994v-9.8h-1.148v3.752zm-2.338 5.11c-1.414 0-2.366-1.078-2.366-2.632s.952-2.632 2.366-2.632c1.4 0 2.352 1.092 2.352 2.66 0 1.526-.952 2.604-2.352 2.604zm6.198-7.406c.42 0 .742-.308.742-.742a.721.721 0 00-.742-.742.721.721 0 00-.742.742c0 .434.322.742.742.742zm-.588 8.344h1.148v-7.14h-1.148V250zm6.781-7.224c-1.204 0-1.932.504-2.352 1.05l-.154-.966h-.994V250h1.148v-3.57c0-1.61.812-2.604 2.156-2.604 1.246 0 1.932.784 1.932 2.268V250h1.148v-3.976c0-2.366-1.274-3.248-2.884-3.248zm10.535 1.316c-.448-.798-1.246-1.316-2.45-1.316-1.974 0-3.43 1.47-3.43 3.654 0 2.324 1.456 3.654 3.43 3.654 1.204 0 1.974-.504 2.45-1.316v.84c0 1.554-.812 2.254-2.31 2.254-1.19 0-1.988-.504-2.184-1.4h-1.176c.182 1.568 1.456 2.422 3.276 2.422 2.45 0 3.542-1.176 3.542-3.234v-6.79h-.994l-.154 1.232zm-2.338 4.97c-1.414 0-2.366-1.078-2.366-2.632s.952-2.632 2.366-2.632c1.4 0 2.352 1.092 2.352 2.66 0 1.526-.952 2.604-2.352 2.604z" fill="#000"/><path d="M484.696 67h1.747l2.671-9.324L491.802 67h1.748l3.444-11.76h-1.512l-2.772 9.878-2.789-9.878h-1.479l-2.889 9.878-2.755-9.878h-1.529L484.696 67zm18.039-8.669c-1.444 0-2.318.706-2.822 1.512V55.24h-1.378V67h1.378v-4.284c0-1.932.991-3.125 2.587-3.125 1.479 0 2.335.941 2.335 2.722V67h1.378v-4.771c0-2.84-1.562-3.898-3.478-3.898zm9.42 8.77c1.982 0 3.393-1.26 3.729-2.974h-1.394c-.286 1.109-1.227 1.747-2.436 1.747-1.63 0-2.655-1.142-2.705-2.772v-.117h6.653a7.21 7.21 0 00.033-.588c-.067-2.537-1.646-4.066-4.065-4.066-2.419 0-4.066 1.781-4.066 4.385 0 2.62 1.68 4.385 4.251 4.385zm-2.722-5.259c.134-1.394 1.294-2.301 2.554-2.301 1.428 0 2.436.823 2.57 2.301h-5.124zm12.475-3.41c-1.529 0-2.184.638-2.587 1.294l-.185-1.294h-1.193V67h1.378v-4.368c0-1.36.487-2.856 2.285-2.856h.689v-1.344h-.387zm5.372 8.669c1.983 0 3.394-1.26 3.73-2.974h-1.394c-.286 1.109-1.227 1.747-2.436 1.747-1.63 0-2.655-1.142-2.705-2.772v-.117h6.653c.016-.202.033-.403.033-.588-.067-2.537-1.646-4.066-4.065-4.066-2.42 0-4.066 1.781-4.066 4.385 0 2.62 1.68 4.385 4.25 4.385zm-2.721-5.259c.134-1.394 1.293-2.301 2.553-2.301 1.428 0 2.436.823 2.571 2.301h-5.124zm13.949-4.855c.504 0 .89-.37.89-.89 0-.521-.386-.89-.89-.89a.866.866 0 00-.891.89c0 .52.387.89.891.89zM537.802 67h1.378v-8.568h-1.378V67zm3.248-2.822c.034 1.881 1.563 2.923 3.78 2.923 1.899 0 3.427-.991 3.427-2.587 0-1.899-1.562-2.268-3.511-2.504-1.243-.15-2.15-.268-2.15-1.21 0-.789.806-1.293 1.999-1.293 1.176 0 1.982.655 2.083 1.529h1.411c-.134-1.78-1.545-2.688-3.494-2.705-1.932-.017-3.36 1.008-3.36 2.57 0 1.781 1.529 2.168 3.444 2.403 1.277.151 2.218.235 2.218 1.31 0 .79-.857 1.31-2.067 1.31-1.428 0-2.318-.738-2.369-1.746h-1.411zM555.057 67h4.284c2.789 0 4.267-1.277 4.267-3.36 0-1.697-1.092-2.503-2.335-2.738 1.109-.387 1.848-1.21 1.848-2.554 0-1.898-1.394-3.108-3.898-3.108h-4.166V67zm4.234-10.433c1.528 0 2.368.706 2.368 1.882 0 1.193-.856 1.898-2.368 1.898h-2.772v-3.78h2.772zm.05 5.09c1.747 0 2.772.723 2.772 2.05 0 1.21-.958 1.966-2.772 1.966h-2.822v-4.015h2.822zm6.941-4.67c.504 0 .891-.37.891-.89 0-.521-.387-.89-.891-.89s-.89.369-.89.89c0 .52.386.89.89.89zM565.577 67h1.377v-8.568h-1.377V67zm10.354-7.09c-.538-.957-1.495-1.579-2.94-1.579-2.369 0-4.116 1.764-4.116 4.385 0 2.789 1.747 4.385 4.116 4.385 1.445 0 2.369-.605 2.94-1.58v1.009c0 1.864-.974 2.704-2.772 2.704-1.428 0-2.386-.604-2.621-1.68h-1.411c.218 1.882 1.747 2.907 3.931 2.907 2.94 0 4.251-1.411 4.251-3.881v-8.148h-1.193l-.185 1.478zm-2.806 5.964c-1.696 0-2.839-1.293-2.839-3.158s1.143-3.158 2.839-3.158c1.68 0 2.823 1.31 2.823 3.192 0 1.83-1.143 3.124-2.823 3.124zM584.456 67h4.284c2.789 0 4.267-1.277 4.267-3.36 0-1.697-1.092-2.503-2.335-2.738 1.109-.387 1.848-1.21 1.848-2.554 0-1.898-1.395-3.108-3.898-3.108h-4.166V67zm4.233-10.433c1.529 0 2.369.706 2.369 1.882 0 1.193-.857 1.898-2.369 1.898h-2.772v-3.78h2.772zm.051 5.09c1.747 0 2.772.723 2.772 2.05 0 1.21-.958 1.966-2.772 1.966h-2.823v-4.015h2.823zm10.183 5.444c1.983 0 3.394-1.26 3.73-2.974h-1.395c-.285 1.109-1.226 1.747-2.436 1.747-1.629 0-2.654-1.142-2.704-2.772v-.117h6.652c.017-.202.034-.403.034-.588-.067-2.537-1.646-4.066-4.066-4.066-2.419 0-4.065 1.781-4.065 4.385 0 2.62 1.68 4.385 4.25 4.385zm-2.721-5.259c.134-1.394 1.293-2.301 2.553-2.301 1.428 0 2.436.823 2.571 2.301h-5.124zm12.71-3.51c-1.445 0-2.318.604-2.822 1.26l-.185-1.16h-1.193V67h1.378v-4.284c0-1.932.974-3.125 2.587-3.125 1.495 0 2.318.941 2.318 2.722V67h1.378v-4.771c0-2.84-1.529-3.898-3.461-3.898zm6.135.654c0-1.528.958-2.57 2.42-2.57 1.276 0 2.15.773 2.15 1.831 0 .924-.487 1.495-1.243 2.033-.958.655-1.798 1.21-1.798 2.554v.588h1.294v-.437c0-.924.655-1.378 1.545-2 .857-.604 1.647-1.377 1.647-2.872 0-1.714-1.411-2.974-3.612-2.974-2.369 0-3.814 1.697-3.814 3.847h1.411zm1.244 7.174c0 .571.403.94.957.94.555 0 .958-.369.958-.94s-.403-.94-.958-.94c-.554 0-.957.369-.957.94zM106.667 228l1.365-3.633h6.027l1.386 3.633h2.583l-5.481-14.7h-2.877l-5.502 14.7h2.499zm4.368-12.096l2.352 6.405h-4.683l2.331-6.405zm14.128 1.344c-1.764 0-2.625.714-3.171 1.617l-.252-1.617h-2.016V228h2.268v-5.397c0-1.659.651-3.234 2.667-3.234h1.008v-2.121h-.504zm6.746 10.878c2.751 0 4.578-1.533 4.998-3.969h-2.394c-.273 1.239-1.197 2.037-2.583 2.037-1.827 0-3.024-1.449-3.024-3.549 0-2.121 1.197-3.591 3.024-3.591 1.407 0 2.31.777 2.604 2.037h2.373c-.441-2.436-2.163-3.969-4.935-3.969-3.255 0-5.397 2.205-5.397 5.523 0 3.36 2.079 5.481 5.334 5.481zm12.802-11.004c-1.68 0-2.709.756-3.381 1.68V213.3h-2.268V228h2.268v-5.439c0-2.163 1.092-3.486 2.877-3.486 1.68 0 2.583 1.092 2.583 3.129V228h2.268v-5.985c0-3.591-1.953-4.893-4.347-4.893zm7.985-1.386c.777 0 1.386-.567 1.386-1.365s-.609-1.365-1.386-1.365c-.777 0-1.386.567-1.386 1.365s.609 1.365 1.386 1.365zM151.541 228h2.268v-10.752h-2.268V228zm7.809 0h2.772l3.969-10.752h-2.394l-2.919 8.316-2.961-8.316h-2.436L159.35 228zm12.92.126c2.667 0 4.473-1.617 4.851-3.738h-2.268c-.315 1.197-1.323 1.89-2.709 1.89-1.785 0-2.94-1.197-3.003-3.024v-.147h8.106a6.16 6.16 0 00.063-.861c-.063-3.15-2.142-5.124-5.25-5.124-3.171 0-5.292 2.205-5.292 5.523 0 3.297 2.121 5.481 5.502 5.481zm-3.045-6.678c.168-1.533 1.407-2.499 2.856-2.499 1.575 0 2.688.903 2.877 2.499h-5.733zM697.756 224.17c.084 2.94 2.289 4.956 5.943 4.956 3.234 0 5.439-1.827 5.439-4.473.021-2.898-2.352-3.675-4.788-4.116-2.31-.399-3.822-.714-3.822-2.226 0-1.386 1.155-2.1 2.814-2.1 1.785 0 2.961 1.008 3.15 2.499h2.415c-.105-2.709-2.205-4.536-5.565-4.536-3.129 0-5.229 1.743-5.229 4.305 0 2.919 2.31 3.696 4.746 4.116 2.331.42 3.864.756 3.864 2.31 0 1.407-1.26 2.184-3.003 2.184-2.058 0-3.402-1.155-3.528-2.877l-2.436-.042zm18.8 4.956c2.667 0 4.473-1.617 4.851-3.738h-2.268c-.315 1.197-1.323 1.89-2.709 1.89-1.785 0-2.94-1.197-3.003-3.024v-.147h8.106a6.16 6.16 0 00.063-.861c-.063-3.15-2.142-5.124-5.25-5.124-3.171 0-5.292 2.205-5.292 5.523 0 3.297 2.121 5.481 5.502 5.481zm-3.045-6.678c.168-1.533 1.407-2.499 2.856-2.499 1.575 0 2.688.903 2.877 2.499h-5.733zm20.166 4.578c-.462 0-.693-.147-.693-.693v-4.305c0-2.541-1.638-3.906-4.494-3.906-2.709 0-4.515 1.302-4.746 3.402h2.226c.168-.945 1.071-1.575 2.415-1.575 1.491 0 2.352.735 2.352 1.932v.651h-2.709c-3.003 0-4.599 1.239-4.599 3.444 0 1.995 1.638 3.15 3.99 3.15 1.743 0 2.835-.756 3.549-1.848 0 1.071.504 1.722 1.974 1.722h1.197v-1.974h-.462zm-2.94-2.436c-.021 1.659-1.113 2.772-3.003 2.772-1.239 0-1.995-.63-1.995-1.533 0-1.092.777-1.617 2.184-1.617h2.814v.378zm10.497-6.342c-1.764 0-2.625.714-3.171 1.617l-.252-1.617h-2.016V229h2.268v-5.397c0-1.659.651-3.234 2.667-3.234h1.008v-2.121h-.504zm6.745 10.878c2.751 0 4.578-1.533 4.998-3.969h-2.394c-.273 1.239-1.197 2.037-2.583 2.037-1.827 0-3.024-1.449-3.024-3.549 0-2.121 1.197-3.591 3.024-3.591 1.407 0 2.31.777 2.604 2.037h2.373c-.441-2.436-2.163-3.969-4.935-3.969-3.255 0-5.397 2.205-5.397 5.523 0 3.36 2.079 5.481 5.334 5.481zm12.803-11.004c-1.68 0-2.709.756-3.381 1.68V214.3h-2.268V229h2.268v-5.439c0-2.163 1.092-3.486 2.877-3.486 1.68 0 2.583 1.092 2.583 3.129V229h2.268v-5.985c0-3.591-1.953-4.893-4.347-4.893zM773.636 229h2.415v-5.334h3.234L782.12 229h2.688l-3.108-5.859c1.722-.609 2.856-2.184 2.856-4.158 0-2.856-2.058-4.683-5.124-4.683h-5.796V229zm5.607-12.6c1.722 0 2.835 1.008 2.835 2.583 0 1.575-1.113 2.583-2.835 2.583h-3.192V216.4h3.192zm12.256 12.726c2.667 0 4.473-1.617 4.851-3.738h-2.268c-.315 1.197-1.323 1.89-2.709 1.89-1.785 0-2.94-1.197-3.003-3.024v-.147h8.106a6.16 6.16 0 00.063-.861c-.063-3.15-2.142-5.124-5.25-5.124-3.171 0-5.292 2.205-5.292 5.523 0 3.297 2.121 5.481 5.502 5.481zm-3.045-6.678c.168-1.533 1.407-2.499 2.856-2.499 1.575 0 2.688.903 2.877 2.499h-5.733zm9.815 3.003c.063 2.331 2.037 3.675 4.914 3.675 2.604 0 4.557-1.302 4.557-3.36 0-2.394-1.995-2.898-4.452-3.192-1.554-.168-2.583-.294-2.583-1.302 0-.861.882-1.407 2.226-1.407 1.344 0 2.268.693 2.394 1.68h2.226c-.147-2.205-2.016-3.423-4.662-3.423-2.583-.021-4.41 1.302-4.41 3.339 0 2.226 1.932 2.751 4.389 3.045 1.659.21 2.646.294 2.646 1.449 0 .861-.924 1.407-2.331 1.407-1.638 0-2.604-.798-2.688-1.911h-2.226zm19.019-1.827c0 2.226-1.05 3.528-2.772 3.528-1.659 0-2.499-1.071-2.499-3.171v-5.733h-2.268v5.985c0 3.675 1.953 4.893 4.242 4.893 1.659 0 2.646-.672 3.318-1.491l.252 1.365h1.995v-10.752h-2.268v5.376zm4.924 5.376h2.268v-14.7h-2.268V229zm5.688-2.919c0 1.953.882 2.919 2.94 2.919h2.1v-1.995h-1.596c-.861 0-1.155-.315-1.155-1.155v-5.607h2.625v-1.995h-2.625v-3.003H827.9v3.003h-1.869v1.995h1.869v5.838zm6.44-.63c.063 2.331 2.037 3.675 4.914 3.675 2.604 0 4.557-1.302 4.557-3.36 0-2.394-1.995-2.898-4.452-3.192-1.554-.168-2.583-.294-2.583-1.302 0-.861.882-1.407 2.226-1.407 1.344 0 2.268.693 2.394 1.68h2.226c-.147-2.205-2.016-3.423-4.662-3.423-2.583-.021-4.41 1.302-4.41 3.339 0 2.226 1.932 2.751 4.389 3.045 1.659.21 2.646.294 2.646 1.449 0 .861-.924 1.407-2.331 1.407-1.638 0-2.604-.798-2.688-1.911h-2.226z" fill="#262626"/><rect x="252" y="265" width="120" height="32" rx="4" fill="#EBEBF8"/><rect x="252" y="316" width="120" height="32" rx="4" fill="#EBEBF8"/><rect x="252" y="367" width="120" height="32" rx="4" fill="#EBEBF8"/><path stroke="#EBEBF8" d="M104 306.5h272M104 357.5h272"/><path d="M711.837 277.136c0 .385-.176.66-.539.66h-1.254v.825h1.243c.242 0 .418-.044.528-.143V284h.924v-7.7h-.902v.836zM710.242 336h5.302v-.847h-4.026l2.31-1.958c.913-.781 1.661-1.507 1.661-2.662 0-1.386-.968-2.299-2.629-2.299-1.551 0-2.574 1.034-2.574 2.486v.198h.924v-.143c0-1.056.66-1.716 1.65-1.716 1.023 0 1.683.55 1.683 1.518 0 .836-.594 1.43-1.309 2.046l-2.992 2.596V336zM714.389 380.996c.737-.198 1.243-.759 1.243-1.727 0-1.21-1.001-2.035-2.585-2.035-1.518 0-2.574.935-2.585 2.288h.913c.011-.88.715-1.463 1.683-1.463.924 0 1.628.484 1.628 1.265 0 .781-.572 1.353-1.716 1.353h-.605v.803h.66c1.199 0 1.859.517 1.859 1.32 0 .88-.77 1.441-1.771 1.441-1.089 0-1.881-.605-1.892-1.617h-.913c0 1.529 1.078 2.442 2.75 2.442s2.772-.891 2.772-2.2c0-1.177-.737-1.738-1.441-1.87z" fill="#000"/><rect x="731" y="265" width="120" height="32" rx="4" fill="#EBEBF8"/><rect x="762" y="289" width="25" height="6" rx="3" transform="rotate(-180 762 289)" fill="#917EF3"/><rect x="844.976" y="278.087" width="107.98" height="5" rx="2.5" transform="rotate(-179.901 844.976 278.087)" fill="#917EF3"/><rect x="731" y="316" width="120" height="32" rx="4" fill="#EBEBF8"/><rect x="786" y="340" width="49" height="6" rx="3" transform="rotate(-180 786 340)" fill="#917EF3"/><rect x="844.976" y="329.087" width="107.98" height="5" rx="2.5" transform="rotate(-179.901 844.976 329.087)" fill="#917EF3"/><rect x="731" y="367" width="120" height="32" rx="4" fill="#EBEBF8"/><rect x="818" y="391" width="81" height="6" rx="3" transform="rotate(-180 818 391)" fill="#917EF3"/><rect x="844.976" y="380.087" width="107.98" height="5" rx="2.5" transform="rotate(-179.901 844.976 380.087)" fill="#917EF3"/><path stroke="#EBEBF8" d="M236.5 259v140"/><path d="M450.25 59.297c0 .969.182 1.878.547 2.727a7.197 7.197 0 001.51 2.245 7.109 7.109 0 002.245 1.519 6.832 6.832 0 002.726.547 6.83 6.83 0 002.227-.359 7.392 7.392 0 001.924-1.009l4.491 4.51a.936.936 0 00.321.197 1.004 1.004 0 00.877-.056.865.865 0 00.34-.35 1.007 1.007 0 00.047-.867.97.97 0 00-.198-.311l-4.472-4.49a7.075 7.075 0 001.094-1.982 6.82 6.82 0 00.396-2.32c0-.976-.182-1.888-.547-2.737a6.994 6.994 0 00-1.519-2.236 7.11 7.11 0 00-2.245-1.518 6.756 6.756 0 00-2.736-.557c-.968 0-1.877.185-2.726.557a7.11 7.11 0 00-3.755 3.754 6.853 6.853 0 00-.547 2.736zm1.368 0c0-.786.148-1.519.443-2.198a5.75 5.75 0 011.217-1.802 5.667 5.667 0 011.802-1.217 5.492 5.492 0 012.198-.443c.786 0 1.519.148 2.198.443.686.29 1.287.695 1.802 1.217a5.523 5.523 0 011.217 1.802c.296.68.444 1.412.444 2.198 0 .78-.148 1.513-.444 2.198a5.72 5.72 0 01-3.019 3.019 5.55 5.55 0 01-2.198.434c-.78 0-1.512-.144-2.198-.434a5.882 5.882 0 01-1.802-1.217 5.899 5.899 0 01-1.217-1.802 5.502 5.502 0 01-.443-2.198z" fill="#917EF3" fill-opacity=".5"/><rect x="307" y="289" width="49" height="5" rx="2.5" transform="rotate(-180 307 289)" fill="#917EF3"/><rect x="365.979" y="278.188" width="107.98" height="5" rx="2.5" transform="rotate(-179.901 365.979 278.188)" fill="#917EF3"/><rect x="283" y="340" width="25" height="5" rx="2.5" transform="rotate(-180 283 340)" fill="#917EF3"/><rect x="365.979" y="329.188" width="107.98" height="5" rx="2.5" transform="rotate(-179.901 365.979 329.188)" fill="#917EF3"/><rect x="339" y="391" width="81" height="5" rx="2.5" transform="rotate(-180 339 391)" fill="#917EF3"/><rect x="365.979" y="380.188" width="107.98" height="5" rx="2.5" transform="rotate(-179.901 365.979 380.188)" fill="#917EF3"/></svg>