<svg width="975" height="451" fill="none" xmlns="http://www.w3.org/2000/svg"><path fill="#F7F7F7" d="M0 0h975v451H0z"/><path d="M203.428 64h9.639v-1.68h-7.812v-4.956h6.279v-1.68h-6.279V50.98h7.539V49.3h-9.366V64zm23.806-10.836c-1.911 0-3.066.882-3.717 2.037-.609-1.365-1.89-2.037-3.381-2.037-1.659 0-2.562.819-3.129 1.596l-.231-1.47h-1.491V64h1.722v-5.649c0-2.142 1.071-3.612 2.835-3.612 1.638 0 2.583 1.092 2.583 3.192V64h1.722v-5.733c0-2.184 1.092-3.528 2.877-3.528 1.617 0 2.541 1.092 2.541 3.192V64h1.722v-6.174c0-3.381-1.827-4.662-4.053-4.662zm12.079 0c-1.806 0-2.961.861-3.675 1.848V49.3h-1.722V64h1.491l.231-1.638c.651 1.029 1.869 1.764 3.675 1.764 2.961 0 5.145-2.205 5.145-5.481 0-3.486-2.184-5.481-5.145-5.481zm-.168 9.429c-2.1 0-3.528-1.638-3.528-3.99 0-2.289 1.428-3.906 3.528-3.906 2.121 0 3.549 1.617 3.549 3.948s-1.428 3.948-3.549 3.948zm12.636 1.533c2.478 0 4.242-1.575 4.662-3.717H254.7c-.357 1.386-1.533 2.184-3.045 2.184-2.037 0-3.318-1.428-3.381-3.465v-.147h8.316c.021-.252.042-.504.042-.735-.084-3.171-2.058-5.082-5.082-5.082s-5.082 2.226-5.082 5.481c0 3.276 2.1 5.481 5.313 5.481zm-3.402-6.573c.168-1.743 1.617-2.877 3.192-2.877 1.785 0 3.045 1.029 3.213 2.877h-6.405zm19.08-2.625c-.651-1.029-1.869-1.764-3.675-1.764-2.961 0-5.145 2.205-5.145 5.481 0 3.486 2.184 5.481 5.145 5.481 1.806 0 2.961-.861 3.675-1.848L267.69 64h1.491V49.3h-1.722v5.628zm-3.507 7.665c-2.121 0-3.549-1.617-3.549-3.948s1.428-3.948 3.549-3.948c2.1 0 3.528 1.638 3.528 3.99 0 2.289-1.428 3.906-3.528 3.906zm16.437-7.665c-.651-1.029-1.869-1.764-3.675-1.764-2.961 0-5.145 2.205-5.145 5.481 0 3.486 2.184 5.481 5.145 5.481 1.806 0 2.961-.861 3.675-1.848L280.62 64h1.491V49.3h-1.722v5.628zm-3.507 7.665c-2.121 0-3.549-1.617-3.549-3.948s1.428-3.948 3.549-3.948c2.1 0 3.528 1.638 3.528 3.99 0 2.289-1.428 3.906-3.528 3.906zm8.877-11.109c.63 0 1.113-.462 1.113-1.113s-.483-1.113-1.113-1.113-1.113.462-1.113 1.113.483 1.113 1.113 1.113zM284.877 64h1.722V53.29h-1.722V64zm9.751-10.836c-1.806 0-2.898.756-3.528 1.575l-.231-1.449h-1.491V64h1.722v-5.355c0-2.415 1.218-3.906 3.234-3.906 1.869 0 2.898 1.176 2.898 3.402V64h1.722v-5.964c0-3.549-1.911-4.872-4.326-4.872zm15.383 1.974c-.672-1.197-1.869-1.974-3.675-1.974-2.961 0-5.145 2.205-5.145 5.481 0 3.486 2.184 5.481 5.145 5.481 1.806 0 2.961-.756 3.675-1.974v1.26c0 2.331-1.218 3.381-3.465 3.381-1.785 0-2.982-.756-3.276-2.1h-1.764c.273 2.352 2.184 3.633 4.914 3.633 3.675 0 5.313-1.764 5.313-4.851V53.29h-1.491l-.231 1.848zm-3.507 7.455c-2.121 0-3.549-1.617-3.549-3.948s1.428-3.948 3.549-3.948c2.1 0 3.528 1.638 3.528 3.99 0 2.289-1.428 3.906-3.528 3.906zm13.575-3.402c.105 2.898 2.205 4.935 5.796 4.935 3.087 0 5.229-1.785 5.229-4.326 0-2.856-2.457-3.654-4.851-4.053-2.205-.378-3.99-.735-3.99-2.499 0-1.575 1.281-2.415 3.192-2.415 1.995 0 3.36 1.113 3.57 2.814h1.89c-.168-2.646-2.184-4.473-5.46-4.473-2.982 0-5.019 1.68-5.019 4.179 0 2.856 2.436 3.633 4.809 4.032 2.226.378 4.032.756 4.032 2.583 0 1.596-1.407 2.499-3.381 2.499-2.247 0-3.78-1.302-3.927-3.276h-1.89zm18.909-6.027c-1.806 0-2.961.861-3.675 1.848l-.231-1.722h-1.491V68.2h1.722v-5.838c.651 1.029 1.869 1.764 3.675 1.764 2.961 0 5.145-2.205 5.145-5.481 0-3.486-2.184-5.481-5.145-5.481zm-.168 9.429c-2.1 0-3.528-1.638-3.528-3.99 0-2.289 1.428-3.906 3.528-3.906 2.121 0 3.549 1.617 3.549 3.948s-1.428 3.948-3.549 3.948zm17.172-.168c-.483 0-.693-.147-.693-.714v-4.683c0-2.499-1.575-3.864-4.305-3.864-2.583 0-4.284 1.239-4.536 3.339h1.722c.21-1.092 1.218-1.806 2.73-1.806 1.68 0 2.667.84 2.667 2.226v.735h-3.15c-2.814 0-4.305 1.197-4.305 3.339 0 1.953 1.596 3.129 3.948 3.129 1.848 0 2.919-.819 3.591-1.785.021 1.05.504 1.659 1.932 1.659h.945v-1.575h-.546zm-2.415-2.793c0 1.785-1.239 3.024-3.381 3.024-1.428 0-2.331-.714-2.331-1.764 0-1.218.861-1.785 2.394-1.785h3.318v.525zm9.39 4.494c2.604 0 4.347-1.47 4.767-3.78h-1.827c-.336 1.365-1.386 2.247-2.919 2.247-2.058 0-3.444-1.596-3.444-3.927s1.386-3.969 3.444-3.969c1.575 0 2.625.861 2.94 2.289h1.806c-.441-2.352-2.1-3.822-4.725-3.822-3.108 0-5.229 2.226-5.229 5.502 0 3.339 2.058 5.46 5.187 5.46zm12.01 0c2.478 0 4.242-1.575 4.662-3.717h-1.743c-.357 1.386-1.533 2.184-3.045 2.184-2.037 0-3.318-1.428-3.381-3.465v-.147h8.316c.021-.252.042-.504.042-.735-.084-3.171-2.058-5.082-5.082-5.082s-5.082 2.226-5.082 5.481c0 3.276 2.1 5.481 5.313 5.481zm-3.402-6.573c.168-1.743 1.617-2.877 3.192-2.877 1.785 0 3.045 1.029 3.213 2.877h-6.405zm10.428-2.478c0 .714.504 1.176 1.197 1.176.693 0 1.197-.462 1.197-1.176s-.504-1.176-1.197-1.176c-.693 0-1.197.462-1.197 1.176zm0 7.875c0 .714.504 1.176 1.197 1.176.693 0 1.197-.462 1.197-1.176s-.504-1.176-1.197-1.176c-.693 0-1.197.462-1.197 1.176zM393.129 64h5.355c3.486 0 5.334-1.596 5.334-4.2 0-2.121-1.365-3.129-2.919-3.423 1.386-.483 2.31-1.512 2.31-3.192 0-2.373-1.743-3.885-4.872-3.885h-5.208V64zm5.292-13.041c1.911 0 2.961.882 2.961 2.352 0 1.491-1.071 2.373-2.961 2.373h-3.465v-4.725h3.465zm.063 6.363c2.184 0 3.465.903 3.465 2.562 0 1.512-1.197 2.457-3.465 2.457h-3.528v-5.019h3.528zm17.265 5.103c-.483 0-.693-.147-.693-.714v-4.683c0-2.499-1.575-3.864-4.305-3.864-2.583 0-4.284 1.239-4.536 3.339h1.722c.21-1.092 1.218-1.806 2.73-1.806 1.68 0 2.667.84 2.667 2.226v.735h-3.15c-2.814 0-4.305 1.197-4.305 3.339 0 1.953 1.596 3.129 3.948 3.129 1.848 0 2.919-.819 3.591-1.785.021 1.05.504 1.659 1.932 1.659h.945v-1.575h-.546zm-2.415-2.793c0 1.785-1.239 3.024-3.381 3.024-1.428 0-2.331-.714-2.331-1.764 0-1.218.861-1.785 2.394-1.785h3.318v.525zm4.264.84c.042 2.352 1.953 3.654 4.725 3.654 2.373 0 4.284-1.239 4.284-3.234 0-2.373-1.953-2.835-4.389-3.129-1.554-.189-2.688-.336-2.688-1.512 0-.987 1.008-1.617 2.499-1.617 1.47 0 2.478.819 2.604 1.911h1.764c-.168-2.226-1.932-3.36-4.368-3.381-2.415-.021-4.2 1.26-4.2 3.213 0 2.226 1.911 2.709 4.305 3.003 1.596.189 2.772.294 2.772 1.638 0 .987-1.071 1.638-2.583 1.638-1.785 0-2.898-.924-2.961-2.184h-1.764zm16.275 3.654c2.478 0 4.242-1.575 4.662-3.717h-1.743c-.357 1.386-1.533 2.184-3.045 2.184-2.037 0-3.318-1.428-3.381-3.465v-.147h8.316c.021-.252.042-.504.042-.735-.084-3.171-2.058-5.082-5.082-5.082s-5.082 2.226-5.082 5.481c0 3.276 2.1 5.481 5.313 5.481zm-3.402-6.573c.168-1.743 1.617-2.877 3.192-2.877 1.785 0 3.045 1.029 3.213 2.877h-6.405zM441.109 64h1.722V49.3h-1.722V64zm5.383-12.516c.63 0 1.113-.462 1.113-1.113s-.483-1.113-1.113-1.113-1.113.462-1.113 1.113.483 1.113 1.113 1.113zM445.61 64h1.722V53.29h-1.722V64zm9.751-10.836c-1.806 0-2.898.756-3.528 1.575l-.231-1.449h-1.491V64h1.722v-5.355c0-2.415 1.218-3.906 3.234-3.906 1.869 0 2.898 1.176 2.898 3.402V64h1.722v-5.964c0-3.549-1.911-4.872-4.326-4.872zm11.754 10.962c2.478 0 4.242-1.575 4.662-3.717h-1.743c-.357 1.386-1.533 2.184-3.045 2.184-2.037 0-3.318-1.428-3.381-3.465v-.147h8.316c.021-.252.042-.504.042-.735-.084-3.171-2.058-5.082-5.082-5.082s-5.082 2.226-5.082 5.481c0 3.276 2.1 5.481 5.313 5.481zm-3.402-6.573c.168-1.743 1.617-2.877 3.192-2.877 1.785 0 3.045 1.029 3.213 2.877h-6.405zM480.519 64h9.639v-1.68h-7.812v-4.956h6.279v-1.68h-6.279V50.98h7.539V49.3h-9.366V64zm23.806-10.836c-1.911 0-3.066.882-3.717 2.037-.609-1.365-1.89-2.037-3.381-2.037-1.659 0-2.562.819-3.129 1.596l-.231-1.47h-1.491V64h1.722v-5.649c0-2.142 1.071-3.612 2.835-3.612 1.638 0 2.583 1.092 2.583 3.192V64h1.722v-5.733c0-2.184 1.092-3.528 2.877-3.528 1.617 0 2.541 1.092 2.541 3.192V64h1.722v-6.174c0-3.381-1.827-4.662-4.053-4.662zm12.079 0c-1.806 0-2.961.861-3.675 1.848V49.3h-1.722V64h1.491l.231-1.638c.651 1.029 1.869 1.764 3.675 1.764 2.961 0 5.145-2.205 5.145-5.481 0-3.486-2.184-5.481-5.145-5.481zm-.168 9.429c-2.1 0-3.528-1.638-3.528-3.99 0-2.289 1.428-3.906 3.528-3.906 2.121 0 3.549 1.617 3.549 3.948s-1.428 3.948-3.549 3.948zm12.636 1.533c2.478 0 4.242-1.575 4.662-3.717h-1.743c-.357 1.386-1.533 2.184-3.045 2.184-2.037 0-3.318-1.428-3.381-3.465v-.147h8.316c.021-.252.042-.504.042-.735-.084-3.171-2.058-5.082-5.082-5.082s-5.082 2.226-5.082 5.481c0 3.276 2.1 5.481 5.313 5.481zm-3.402-6.573c.168-1.743 1.617-2.877 3.192-2.877 1.785 0 3.045 1.029 3.213 2.877h-6.405zm19.08-2.625c-.651-1.029-1.869-1.764-3.675-1.764-2.961 0-5.145 2.205-5.145 5.481 0 3.486 2.184 5.481 5.145 5.481 1.806 0 2.961-.861 3.675-1.848l.231 1.722h1.491V49.3h-1.722v5.628zm-3.507 7.665c-2.121 0-3.549-1.617-3.549-3.948s1.428-3.948 3.549-3.948c2.1 0 3.528 1.638 3.528 3.99 0 2.289-1.428 3.906-3.528 3.906zm16.437-7.665c-.651-1.029-1.869-1.764-3.675-1.764-2.961 0-5.145 2.205-5.145 5.481 0 3.486 2.184 5.481 5.145 5.481 1.806 0 2.961-.861 3.675-1.848l.231 1.722h1.491V49.3h-1.722v5.628zm-3.507 7.665c-2.121 0-3.549-1.617-3.549-3.948s1.428-3.948 3.549-3.948c2.1 0 3.528 1.638 3.528 3.99 0 2.289-1.428 3.906-3.528 3.906zm8.877-11.109c.63 0 1.113-.462 1.113-1.113s-.483-1.113-1.113-1.113-1.113.462-1.113 1.113.483 1.113 1.113 1.113zM561.968 64h1.722V53.29h-1.722V64zm9.751-10.836c-1.806 0-2.898.756-3.528 1.575l-.231-1.449h-1.491V64h1.722v-5.355c0-2.415 1.218-3.906 3.234-3.906 1.869 0 2.898 1.176 2.898 3.402V64h1.722v-5.964c0-3.549-1.911-4.872-4.326-4.872zm15.383 1.974c-.672-1.197-1.869-1.974-3.675-1.974-2.961 0-5.145 2.205-5.145 5.481 0 3.486 2.184 5.481 5.145 5.481 1.806 0 2.961-.756 3.675-1.974v1.26c0 2.331-1.218 3.381-3.465 3.381-1.785 0-2.982-.756-3.276-2.1h-1.764c.273 2.352 2.184 3.633 4.914 3.633 3.675 0 5.313-1.764 5.313-4.851V53.29h-1.491l-.231 1.848zm-3.507 7.455c-2.121 0-3.549-1.617-3.549-3.948s1.428-3.948 3.549-3.948c2.1 0 3.528 1.638 3.528 3.99 0 2.289-1.428 3.906-3.528 3.906zm7.554-2.121c.042 2.352 1.953 3.654 4.725 3.654 2.373 0 4.284-1.239 4.284-3.234 0-2.373-1.953-2.835-4.389-3.129-1.554-.189-2.688-.336-2.688-1.512 0-.987 1.008-1.617 2.499-1.617 1.47 0 2.478.819 2.604 1.911h1.764c-.168-2.226-1.932-3.36-4.368-3.381-2.415-.021-4.2 1.26-4.2 3.213 0 2.226 1.911 2.709 4.305 3.003 1.596.189 2.772.294 2.772 1.638 0 .987-1.071 1.638-2.583 1.638-1.785 0-2.898-.924-2.961-2.184h-1.764z" fill="#262626"/><path fill="#EBEBF8" d="M202 101h560v294H202z"/><path stroke="#F7F7F7" d="M214.5 91v320M254.5 91v320M294.5 91v320M334.5 91v320M374.5 91v320M454.5 91v320M414.5 91v320M494.5 91v320M534.5 91v320M534.5 91v320M574.5 91v320M614.5 91v320M654.5 91v320M694.5 91v320M774.5 91v320M734.5 91v320"/><path d="M339.52 148.023c.065 1.794 1.365 3.055 3.588 3.055 1.911 0 3.237-1.105 3.237-2.678 0-1.768-1.521-2.262-3.003-2.509-1.365-.234-2.47-.455-2.47-1.547 0-.975.793-1.495 1.976-1.495 1.235 0 2.08.689 2.21 1.742h1.17c-.104-1.638-1.352-2.769-3.38-2.769-1.846 0-3.107 1.04-3.107 2.587 0 1.768 1.508 2.249 2.977 2.496 1.378.234 2.496.468 2.496 1.599 0 .988-.871 1.547-2.093 1.547-1.391 0-2.34-.806-2.431-2.028h-1.17zm11.874-3.731c-1.118 0-1.794.546-2.184 1.17V141.9h-1.066v9.1h1.066v-3.315c0-1.495.767-2.418 2.002-2.418 1.144 0 1.807.728 1.807 2.106V151h1.066v-3.692c0-2.197-1.209-3.016-2.691-3.016zm5.116-1.04a.67.67 0 00.689-.689.67.67 0 00-.689-.689.67.67 0 00-.689.689.67.67 0 00.689.689zm-.546 7.748h1.066v-6.63h-1.066V151zm6.388-6.708c-1.118 0-1.833.533-2.275 1.144l-.143-1.066h-.923v9.23h1.066v-3.614c.403.637 1.157 1.092 2.275 1.092 1.833 0 3.185-1.365 3.185-3.393 0-2.158-1.352-3.393-3.185-3.393zm-.104 5.837c-1.3 0-2.184-1.014-2.184-2.47 0-1.417.884-2.418 2.184-2.418 1.313 0 2.197 1.001 2.197 2.444s-.884 2.444-2.197 2.444zm8.368-5.837c-1.118 0-1.833.533-2.275 1.144l-.143-1.066h-.923v9.23h1.066v-3.614c.403.637 1.157 1.092 2.275 1.092 1.833 0 3.185-1.365 3.185-3.393 0-2.158-1.352-3.393-3.185-3.393zm-.104 5.837c-1.3 0-2.184-1.014-2.184-2.47 0-1.417.884-2.418 2.184-2.418 1.313 0 2.197 1.001 2.197 2.444s-.884 2.444-2.197 2.444zm5.573-6.877a.67.67 0 00.689-.689.67.67 0 00-.689-.689.67.67 0 00-.689.689.67.67 0 00.689.689zm-.546 7.748h1.066v-6.63h-1.066V151zm6.296-6.708c-1.118 0-1.794.468-2.184.975l-.143-.897h-.923V151h1.066v-3.315c0-1.495.754-2.418 2.002-2.418 1.157 0 1.794.728 1.794 2.106V151h1.066v-3.692c0-2.197-1.183-3.016-2.678-3.016zm9.783 1.222c-.416-.741-1.157-1.222-2.275-1.222-1.833 0-3.185 1.365-3.185 3.393 0 2.158 1.352 3.393 3.185 3.393 1.118 0 1.833-.468 2.275-1.222v.78c0 1.443-.754 2.093-2.145 2.093-1.105 0-1.846-.468-2.028-1.3h-1.092c.169 1.456 1.352 2.249 3.042 2.249 2.275 0 3.289-1.092 3.289-3.003v-6.305h-.923l-.143 1.144zm-2.171 4.615c-1.313 0-2.197-1.001-2.197-2.444s.884-2.444 2.197-2.444c1.3 0 2.184 1.014 2.184 2.47 0 1.417-.884 2.418-2.184 2.418zM400.1 151h1.17l1.664-4.927 1.599 4.927h1.17l2.21-6.63h-1.079l-1.729 5.395-1.651-5.395h-.988l-1.742 5.395-1.651-5.395h-1.118L400.1 151zm14.79-.975c-.299 0-.429-.091-.429-.442v-2.899c0-1.547-.975-2.392-2.665-2.392-1.599 0-2.652.767-2.808 2.067h1.066c.13-.676.754-1.118 1.69-1.118 1.04 0 1.651.52 1.651 1.378v.455h-1.95c-1.742 0-2.665.741-2.665 2.067 0 1.209.988 1.937 2.444 1.937 1.144 0 1.807-.507 2.223-1.105.013.65.312 1.027 1.196 1.027h.585v-.975h-.338zm-1.495-1.729c0 1.105-.767 1.872-2.093 1.872-.884 0-1.443-.442-1.443-1.092 0-.754.533-1.105 1.482-1.105h2.054v.325zm2.899.52c.026 1.456 1.209 2.262 2.925 2.262 1.469 0 2.652-.767 2.652-2.002 0-1.469-1.209-1.755-2.717-1.937-.962-.117-1.664-.208-1.664-.936 0-.611.624-1.001 1.547-1.001.91 0 1.534.507 1.612 1.183h1.092c-.104-1.378-1.196-2.08-2.704-2.093-1.495-.013-2.6.78-2.6 1.989 0 1.378 1.183 1.677 2.665 1.859.988.117 1.716.182 1.716 1.014 0 .611-.663 1.014-1.599 1.014-1.105 0-1.794-.572-1.833-1.352h-1.092zm10.501-3.471h1.196V151h1.066v-5.655h1.872v-.975h-1.872v-.767c0-.507.195-.728.728-.728h1.144v-.975h-1.209c-1.235 0-1.729.559-1.729 1.729v.741h-1.196v.975zm11.084 4.68c-.299 0-.429-.091-.429-.442v-2.899c0-1.547-.975-2.392-2.665-2.392-1.599 0-2.652.767-2.808 2.067h1.066c.13-.676.754-1.118 1.69-1.118 1.04 0 1.651.52 1.651 1.378v.455h-1.95c-1.742 0-2.665.741-2.665 2.067 0 1.209.988 1.937 2.444 1.937 1.144 0 1.807-.507 2.223-1.105.013.65.312 1.027 1.196 1.027h.585v-.975h-.338zm-1.495-1.729c0 1.105-.767 1.872-2.093 1.872-.884 0-1.443-.442-1.443-1.092 0-.754.533-1.105 1.482-1.105h2.054v.325zm2.899.52c.026 1.456 1.209 2.262 2.925 2.262 1.469 0 2.652-.767 2.652-2.002 0-1.469-1.209-1.755-2.717-1.937-.962-.117-1.664-.208-1.664-.936 0-.611.624-1.001 1.547-1.001.91 0 1.534.507 1.612 1.183h1.092c-.104-1.378-1.196-2.08-2.704-2.093-1.495-.013-2.6.78-2.6 1.989 0 1.378 1.183 1.677 2.665 1.859.988.117 1.716.182 1.716 1.014 0 .611-.663 1.014-1.599 1.014-1.105 0-1.794-.572-1.833-1.352h-1.092zm7.775.455c0 1.17.455 1.729 1.729 1.729h1.157v-.975h-1.053c-.572 0-.767-.208-.767-.767v-3.913h1.716v-.975h-1.716v-1.859h-1.066v1.859h-1.196v.975h1.196v3.926zm5.642-.988l.156-6.383h-1.144l.169 6.383h.819zm-1.157 2.067c0 .442.312.728.741.728s.741-.286.741-.728-.312-.728-.741-.728-.741.286-.741.728z" fill="#2E4E4A"/><path d="M219.884 198h1.105v-7.176l3.016 7.176h1.001l3.016-7.176V198h1.105v-9.1h-1.404l-3.185 7.553-3.224-7.553h-1.43v9.1zm13.295.039l-.325.806c-.247.624-.351.78-.962.78h-.949v.975h1.274c.936 0 1.183-.416 1.599-1.482l3.055-7.748h-1.131l-1.976 5.291-2.041-5.291h-1.131l2.587 6.669zm11.984.039c1.937 0 3.289-1.378 3.289-3.393 0-2.015-1.352-3.393-3.289-3.393s-3.289 1.378-3.289 3.393c0 2.015 1.352 3.393 3.289 3.393zm0-.949c-1.313 0-2.197-1.027-2.197-2.444s.884-2.444 2.197-2.444c1.313 0 2.197 1.027 2.197 2.444s-.884 2.444-2.197 2.444zm8.1-5.759c-1.183 0-1.69.494-2.002 1.001l-.143-1.001h-.923V198h1.066v-3.38c0-1.053.377-2.21 1.768-2.21h.533v-1.04h-.299zm6.588 1.014c-.403-.637-1.157-1.092-2.275-1.092-1.833 0-3.185 1.365-3.185 3.393 0 2.158 1.352 3.393 3.185 3.393 1.118 0 1.833-.533 2.275-1.144l.143 1.066h.923v-9.1h-1.066v3.484zm-2.171 4.745c-1.313 0-2.197-1.001-2.197-2.444s.884-2.444 2.197-2.444c1.3 0 2.184 1.014 2.184 2.47 0 1.417-.884 2.418-2.184 2.418zm8.264.949c1.534 0 2.626-.975 2.886-2.301h-1.079c-.221.858-.949 1.352-1.885 1.352-1.261 0-2.054-.884-2.093-2.145v-.091h5.148c.013-.156.026-.312.026-.455-.052-1.963-1.274-3.146-3.146-3.146-1.872 0-3.146 1.378-3.146 3.393 0 2.028 1.3 3.393 3.289 3.393zm-2.106-4.069c.104-1.079 1.001-1.781 1.976-1.781 1.105 0 1.885.637 1.989 1.781h-3.965zm9.913-2.639c-1.183 0-1.69.494-2.002 1.001l-.143-1.001h-.923V198h1.066v-3.38c0-1.053.377-2.21 1.768-2.21h.533v-1.04h-.299zm7.187 6.63h1.17l1.664-4.927 1.599 4.927h1.17l2.21-6.63h-1.079l-1.729 5.395-1.651-5.395h-.988l-1.742 5.395-1.651-5.395h-1.118l2.145 6.63zm14.79-.975c-.299 0-.429-.091-.429-.442v-2.899c0-1.547-.975-2.392-2.665-2.392-1.599 0-2.652.767-2.808 2.067h1.066c.13-.676.754-1.118 1.69-1.118 1.04 0 1.651.52 1.651 1.378v.455h-1.95c-1.742 0-2.665.741-2.665 2.067 0 1.209.988 1.937 2.444 1.937 1.144 0 1.807-.507 2.223-1.105.013.65.312 1.027 1.196 1.027h.585v-.975h-.338zm-1.495-1.729c0 1.105-.767 1.872-2.093 1.872-.884 0-1.443-.442-1.443-1.092 0-.754.533-1.105 1.482-1.105h2.054v.325zm2.899.52c.026 1.456 1.209 2.262 2.925 2.262 1.469 0 2.652-.767 2.652-2.002 0-1.469-1.209-1.755-2.717-1.937-.962-.117-1.664-.208-1.664-.936 0-.611.624-1.001 1.547-1.001.91 0 1.534.507 1.612 1.183h1.092c-.104-1.378-1.196-2.08-2.704-2.093-1.495-.013-2.6.78-2.6 1.989 0 1.378 1.183 1.677 2.665 1.859.988.117 1.716.182 1.716 1.014 0 .611-.663 1.014-1.599 1.014-1.105 0-1.794-.572-1.833-1.352h-1.092zM308.335 198h1.066v-9.1h-1.066v9.1zm8.909-.975c-.299 0-.429-.091-.429-.442v-2.899c0-1.547-.975-2.392-2.665-2.392-1.599 0-2.652.767-2.808 2.067h1.066c.13-.676.754-1.118 1.69-1.118 1.04 0 1.651.52 1.651 1.378v.455h-1.95c-1.742 0-2.665.741-2.665 2.067 0 1.209.988 1.937 2.444 1.937 1.144 0 1.807-.507 2.223-1.105.013.65.312 1.027 1.196 1.027h.585v-.975h-.338zm-1.495-1.729c0 1.105-.767 1.872-2.093 1.872-.884 0-1.443-.442-1.443-1.092 0-.754.533-1.105 1.482-1.105h2.054v.325zm3.667.975c0 1.17.455 1.729 1.729 1.729h1.157v-.975h-1.053c-.572 0-.767-.208-.767-.767v-3.913h1.716v-.975h-1.716v-1.859h-1.066v1.859h-1.196v.975h1.196v3.926zm7.219 1.807c1.534 0 2.626-.975 2.886-2.301h-1.079c-.221.858-.949 1.352-1.885 1.352-1.261 0-2.054-.884-2.093-2.145v-.091h5.148c.013-.156.026-.312.026-.455-.052-1.963-1.274-3.146-3.146-3.146-1.872 0-3.146 1.378-3.146 3.393 0 2.028 1.3 3.393 3.289 3.393zm-2.106-4.069c.104-1.079 1.001-1.781 1.976-1.781 1.105 0 1.885.637 1.989 1.781h-3.965z" fill="#CB722A"/><path d="M238.23 307.45c0-2.678-1.781-4.628-4.342-4.628s-4.342 1.95-4.342 4.628 1.781 4.628 4.342 4.628 4.342-1.95 4.342-4.628zm-7.527 0c0-2.093 1.287-3.588 3.185-3.588 1.898 0 3.185 1.495 3.185 3.588s-1.287 3.588-3.185 3.588c-1.898 0-3.185-1.495-3.185-3.588zm12.388-2.08c-1.183 0-1.69.494-2.002 1.001l-.143-1.001h-.923V312h1.066v-3.38c0-1.053.377-2.21 1.768-2.21h.533v-1.04h-.299zm6.589 1.014c-.403-.637-1.157-1.092-2.275-1.092-1.833 0-3.185 1.365-3.185 3.393 0 2.158 1.352 3.393 3.185 3.393 1.118 0 1.833-.533 2.275-1.144l.143 1.066h.923v-9.1h-1.066v3.484zm-2.171 4.745c-1.313 0-2.197-1.001-2.197-2.444s.884-2.444 2.197-2.444c1.3 0 2.184 1.014 2.184 2.47 0 1.417-.884 2.418-2.184 2.418zm8.264.949c1.534 0 2.626-.975 2.886-2.301h-1.079c-.221.858-.949 1.352-1.885 1.352-1.261 0-2.054-.884-2.093-2.145v-.091h5.148c.013-.156.026-.312.026-.455-.052-1.963-1.274-3.146-3.146-3.146-1.872 0-3.146 1.378-3.146 3.393 0 2.028 1.3 3.393 3.289 3.393zm-2.106-4.069c.104-1.079 1.001-1.781 1.976-1.781 1.105 0 1.885.637 1.989 1.781h-3.965zm9.913-2.639c-1.183 0-1.69.494-2.002 1.001l-.143-1.001h-.923V312h1.066v-3.38c0-1.053.377-2.21 1.768-2.21h.533v-1.04h-.299zm11.528 5.655c-.299 0-.429-.091-.429-.442v-2.899c0-1.547-.975-2.392-2.665-2.392-1.599 0-2.652.767-2.808 2.067h1.066c.13-.676.754-1.118 1.69-1.118 1.04 0 1.651.52 1.651 1.378v.455h-1.95c-1.742 0-2.665.741-2.665 2.067 0 1.209.988 1.937 2.444 1.937 1.144 0 1.807-.507 2.223-1.105.013.65.312 1.027 1.196 1.027h.585v-.975h-.338zm-1.495-1.729c0 1.105-.767 1.872-2.093 1.872-.884 0-1.443-.442-1.443-1.092 0-.754.533-1.105 1.482-1.105h2.054v.325zm6.241-3.926c-1.183 0-1.69.494-2.002 1.001l-.143-1.001h-.923V312h1.066v-3.38c0-1.053.377-2.21 1.768-2.21h.533v-1.04h-.299zm4.811 0c-1.183 0-1.69.494-2.002 1.001l-.143-1.001h-.923V312h1.066v-3.38c0-1.053.377-2.21 1.768-2.21h.533v-1.04h-.299zm2.289-1.118a.67.67 0 00.689-.689.67.67 0 00-.689-.689.67.67 0 00-.689.689.67.67 0 00.689.689zm-.546 7.748h1.066v-6.63h-1.066V312zm4.866 0h1.287l2.483-6.63h-1.118l-1.989 5.421-2.002-5.421h-1.144l2.483 6.63zm7.849.078c1.534 0 2.626-.975 2.886-2.301h-1.079c-.221.858-.949 1.352-1.885 1.352-1.261 0-2.054-.884-2.093-2.145v-.091h5.148c.013-.156.026-.312.026-.455-.052-1.963-1.274-3.146-3.146-3.146-1.872 0-3.146 1.378-3.146 3.393 0 2.028 1.3 3.393 3.289 3.393zm-2.106-4.069c.104-1.079 1.001-1.781 1.976-1.781 1.105 0 1.885.637 1.989 1.781h-3.965zm12.072-1.625c-.403-.637-1.157-1.092-2.275-1.092-1.833 0-3.185 1.365-3.185 3.393 0 2.158 1.352 3.393 3.185 3.393 1.118 0 1.833-.533 2.275-1.144l.143 1.066h.923v-9.1h-1.066v3.484zm-2.171 4.745c-1.313 0-2.197-1.001-2.197-2.444s.884-2.444 2.197-2.444c1.3 0 2.184 1.014 2.184 2.47 0 1.417-.884 2.418-2.184 2.418zm12.186.949c1.937 0 3.289-1.378 3.289-3.393 0-2.015-1.352-3.393-3.289-3.393s-3.289 1.378-3.289 3.393c0 2.015 1.352 3.393 3.289 3.393zm0-.949c-1.313 0-2.197-1.027-2.197-2.444s.884-2.444 2.197-2.444c1.313 0 2.197 1.027 2.197 2.444s-.884 2.444-2.197 2.444zm8.281-5.837c-1.118 0-1.794.468-2.184.975l-.143-.897h-.923V312h1.066v-3.315c0-1.495.754-2.418 2.002-2.418 1.157 0 1.794.728 1.794 2.106V312h1.066v-3.692c0-2.197-1.183-3.016-2.678-3.016zm8.974 4.979c0 1.17.455 1.729 1.729 1.729h1.157v-.975h-1.053c-.572 0-.767-.208-.767-.767v-3.913h1.716v-.975h-1.716v-1.859h-1.066v1.859h-1.196v.975h1.196v3.926zm4.876-6.019a.67.67 0 00.689-.689.67.67 0 00-.689-.689.67.67 0 00-.689.689.67.67 0 00.689.689zm-.546 7.748h1.066v-6.63h-1.066V312zm10.443-6.708c-1.183 0-1.898.546-2.301 1.261-.377-.845-1.17-1.261-2.093-1.261-1.027 0-1.586.507-1.937.988l-.143-.91h-.923V312h1.066v-3.497c0-1.326.663-2.236 1.755-2.236 1.014 0 1.599.676 1.599 1.976V312h1.066v-3.549c0-1.352.676-2.184 1.781-2.184 1.001 0 1.573.676 1.573 1.976V312h1.066v-3.822c0-2.093-1.131-2.886-2.509-2.886zm7.375 6.786c1.534 0 2.626-.975 2.886-2.301h-1.079c-.221.858-.949 1.352-1.885 1.352-1.261 0-2.054-.884-2.093-2.145v-.091h5.148c.013-.156.026-.312.026-.455-.052-1.963-1.274-3.146-3.146-3.146-1.872 0-3.146 1.378-3.146 3.393 0 2.028 1.3 3.393 3.289 3.393zm-2.106-4.069c.104-1.079 1.001-1.781 1.976-1.781 1.105 0 1.885.637 1.989 1.781h-3.965z" fill="#2E4E4A"/><path d="M547.884 182h1.131v-9.1h-1.131v9.1zm3.753-1.729c0 1.17.455 1.729 1.729 1.729h1.157v-.975h-1.053c-.572 0-.767-.208-.767-.767v-3.913h1.716v-.975h-1.716v-1.859h-1.066v1.859h-1.196v.975h1.196v3.926zm7.219 1.807c1.534 0 2.626-.975 2.886-2.301h-1.079c-.221.858-.949 1.352-1.885 1.352-1.261 0-2.054-.884-2.093-2.145v-.091h5.148c.013-.156.026-.312.026-.455-.052-1.963-1.274-3.146-3.146-3.146-1.872 0-3.146 1.378-3.146 3.393 0 2.028 1.3 3.393 3.289 3.393zm-2.106-4.069c.104-1.079 1.001-1.781 1.976-1.781 1.105 0 1.885.637 1.989 1.781h-3.965zm14.243-2.717c-1.183 0-1.898.546-2.301 1.261-.377-.845-1.17-1.261-2.093-1.261-1.027 0-1.586.507-1.937.988l-.143-.91h-.923V182h1.066v-3.497c0-1.326.663-2.236 1.755-2.236 1.014 0 1.599.676 1.599 1.976V182h1.066v-3.549c0-1.352.676-2.184 1.781-2.184 1.001 0 1.573.676 1.573 1.976V182h1.066v-3.822c0-2.093-1.131-2.886-2.509-2.886zm4.123 4.524c.026 1.456 1.209 2.262 2.925 2.262 1.469 0 2.652-.767 2.652-2.002 0-1.469-1.209-1.755-2.717-1.937-.962-.117-1.664-.208-1.664-.936 0-.611.624-1.001 1.547-1.001.91 0 1.534.507 1.612 1.183h1.092c-.104-1.378-1.196-2.08-2.704-2.093-1.495-.013-2.6.78-2.6 1.989 0 1.378 1.183 1.677 2.665 1.859.988.117 1.716.182 1.716 1.014 0 .611-.663 1.014-1.599 1.014-1.105 0-1.794-.572-1.833-1.352h-1.092zm17.066 1.209c-.299 0-.429-.091-.429-.442v-2.899c0-1.547-.975-2.392-2.665-2.392-1.599 0-2.652.767-2.808 2.067h1.066c.13-.676.754-1.118 1.69-1.118 1.04 0 1.651.52 1.651 1.378v.455h-1.95c-1.742 0-2.665.741-2.665 2.067 0 1.209.988 1.937 2.444 1.937 1.144 0 1.807-.507 2.223-1.105.013.65.312 1.027 1.196 1.027h.585v-.975h-.338zm-1.495-1.729c0 1.105-.767 1.872-2.093 1.872-.884 0-1.443-.442-1.443-1.092 0-.754.533-1.105 1.482-1.105h2.054v.325zm6.24-3.926c-1.183 0-1.69.494-2.002 1.001l-.143-1.001h-.923V182h1.066v-3.38c0-1.053.377-2.21 1.768-2.21h.533v-1.04h-.299zm4.417 6.708c1.534 0 2.626-.975 2.886-2.301h-1.079c-.221.858-.949 1.352-1.885 1.352-1.261 0-2.054-.884-2.093-2.145v-.091h5.148c.013-.156.026-.312.026-.455-.052-1.963-1.274-3.146-3.146-3.146-1.872 0-3.146 1.378-3.146 3.393 0 2.028 1.3 3.393 3.289 3.393zm-2.106-4.069c.104-1.079 1.001-1.781 1.976-1.781 1.105 0 1.885.637 1.989 1.781h-3.965zm16.631 3.016c-.299 0-.429-.091-.429-.442v-2.899c0-1.547-.975-2.392-2.665-2.392-1.599 0-2.652.767-2.808 2.067h1.066c.13-.676.754-1.118 1.69-1.118 1.04 0 1.651.52 1.651 1.378v.455h-1.95c-1.742 0-2.665.741-2.665 2.067 0 1.209.988 1.937 2.444 1.937 1.144 0 1.807-.507 2.223-1.105.013.65.312 1.027 1.196 1.027h.585v-.975h-.338zm-1.495-1.729c0 1.105-.767 1.872-2.093 1.872-.884 0-1.443-.442-1.443-1.092 0-.754.533-1.105 1.482-1.105h2.054v.325zm3.173 2.704h1.066v-9.1h-1.066v9.1zm4.567 0h1.17l1.664-4.927 1.599 4.927h1.17l2.21-6.63h-1.079l-1.729 5.395-1.651-5.395h-.988l-1.742 5.395-1.651-5.395h-1.118l2.145 6.63zm14.79-.975c-.299 0-.429-.091-.429-.442v-2.899c0-1.547-.975-2.392-2.665-2.392-1.599 0-2.652.767-2.808 2.067h1.066c.13-.676.754-1.118 1.69-1.118 1.04 0 1.651.52 1.651 1.378v.455h-1.95c-1.742 0-2.665.741-2.665 2.067 0 1.209.988 1.937 2.444 1.937 1.144 0 1.807-.507 2.223-1.105.013.65.312 1.027 1.196 1.027h.585v-.975h-.338zm-1.495-1.729c0 1.105-.767 1.872-2.093 1.872-.884 0-1.443-.442-1.443-1.092 0-.754.533-1.105 1.482-1.105h2.054v.325zm4.855 2.743l-.325.806c-.247.624-.351.78-.962.78h-.949v.975h1.274c.936 0 1.183-.416 1.599-1.482l3.055-7.748h-1.131l-1.976 5.291-2.041-5.291h-1.131l2.587 6.669zm4.62-2.223c.026 1.456 1.209 2.262 2.925 2.262 1.469 0 2.652-.767 2.652-2.002 0-1.469-1.209-1.755-2.717-1.937-.962-.117-1.664-.208-1.664-.936 0-.611.624-1.001 1.547-1.001.91 0 1.534.507 1.612 1.183h1.092c-.104-1.378-1.196-2.08-2.704-2.093-1.495-.013-2.6.78-2.6 1.989 0 1.378 1.183 1.677 2.665 1.859.988.117 1.716.182 1.716 1.014 0 .611-.663 1.014-1.599 1.014-1.105 0-1.794-.572-1.833-1.352h-1.092zm10.93 0c.026 1.456 1.209 2.262 2.925 2.262 1.469 0 2.652-.767 2.652-2.002 0-1.469-1.209-1.755-2.717-1.937-.962-.117-1.664-.208-1.664-.936 0-.611.624-1.001 1.547-1.001.91 0 1.534.507 1.612 1.183h1.092c-.104-1.378-1.196-2.08-2.704-2.093-1.495-.013-2.6.78-2.6 1.989 0 1.378 1.183 1.677 2.665 1.859.988.117 1.716.182 1.716 1.014 0 .611-.663 1.014-1.599 1.014-1.105 0-1.794-.572-1.833-1.352h-1.092zm10.335 2.262c1.937 0 3.289-1.378 3.289-3.393 0-2.015-1.352-3.393-3.289-3.393s-3.289 1.378-3.289 3.393c0 2.015 1.352 3.393 3.289 3.393zm0-.949c-1.313 0-2.197-1.027-2.197-2.444s.884-2.444 2.197-2.444c1.313 0 2.197 1.027 2.197 2.444s-.884 2.444-2.197 2.444zm5.031.871h1.066v-9.1h-1.066v9.1zm8.273-5.616c-.403-.637-1.157-1.092-2.275-1.092-1.833 0-3.185 1.365-3.185 3.393 0 2.158 1.352 3.393 3.185 3.393 1.118 0 1.833-.533 2.275-1.144l.143 1.066h.923v-9.1h-1.066v3.484zm-2.171 4.745c-1.313 0-2.197-1.001-2.197-2.444s.884-2.444 2.197-2.444c1.3 0 2.184 1.014 2.184 2.47 0 1.417-.884 2.418-2.184 2.418zm12.186.949c1.937 0 3.289-1.378 3.289-3.393 0-2.015-1.352-3.393-3.289-3.393s-3.289 1.378-3.289 3.393c0 2.015 1.352 3.393 3.289 3.393zm0-.949c-1.313 0-2.197-1.027-2.197-2.444s.884-2.444 2.197-2.444c1.313 0 2.197 1.027 2.197 2.444s-.884 2.444-2.197 2.444zm9.673-2.444c0 1.495-.728 2.418-1.937 2.418-1.105 0-1.729-.728-1.729-2.106v-3.627h-1.066v3.692c0 2.197 1.157 3.016 2.613 3.016 1.092 0 1.729-.468 2.119-.962l.143.884h.923v-6.63h-1.066v3.315zm3.558 1.586c0 1.17.455 1.729 1.729 1.729h1.157v-.975h-1.053c-.572 0-.767-.208-.767-.767v-3.913h1.716v-.975h-1.716v-1.859h-1.066v1.859h-1.196v.975h1.196v3.926z" fill="#CB722A"/><path d="M584.884 328h1.131v-9.1h-1.131v9.1zm7.181 0h1.066v-9.1h-1.066v9.1zm3.592-7.748a.67.67 0 00.689-.689.67.67 0 00-.689-.689.67.67 0 00-.689.689.67.67 0 00.689.689zm-.546 7.748h1.066v-6.63h-1.066V328zm3.047 0h1.066v-1.742l1.339-1.378 2.197 3.12h1.287l-2.769-3.887 2.587-2.743h-1.313l-3.328 3.523V318.9h-1.066v9.1zm9.833.078c1.534 0 2.626-.975 2.886-2.301h-1.079c-.221.858-.949 1.352-1.885 1.352-1.261 0-2.054-.884-2.093-2.145v-.091h5.148c.013-.156.026-.312.026-.455-.052-1.963-1.274-3.146-3.146-3.146-1.872 0-3.146 1.378-3.146 3.393 0 2.028 1.3 3.393 3.289 3.393zm-2.106-4.069c.104-1.079 1.001-1.781 1.976-1.781 1.105 0 1.885.637 1.989 1.781h-3.965zm12.692 4.03l-.325.806c-.247.624-.351.78-.962.78h-.949v.975h1.274c.936 0 1.183-.416 1.599-1.482l3.055-7.748h-1.131l-1.976 5.291-2.041-5.291h-1.131l2.587 6.669zm7.77.039c1.937 0 3.289-1.378 3.289-3.393 0-2.015-1.352-3.393-3.289-3.393s-3.289 1.378-3.289 3.393c0 2.015 1.352 3.393 3.289 3.393zm0-.949c-1.313 0-2.197-1.027-2.197-2.444s.884-2.444 2.197-2.444c1.313 0 2.197 1.027 2.197 2.444s-.884 2.444-2.197 2.444zm9.673-2.444c0 1.495-.728 2.418-1.937 2.418-1.105 0-1.729-.728-1.729-2.106v-3.627h-1.066v3.692c0 2.197 1.157 3.016 2.613 3.016 1.092 0 1.729-.468 2.119-.962l.143.884h.923v-6.63h-1.066v3.315zm6.107-3.315c-1.183 0-1.69.494-2.002 1.001l-.143-1.001h-.923V328h1.066v-3.38c0-1.053.377-2.21 1.768-2.21h.533v-1.04h-.299zm9.006-.078c-1.118 0-1.833.533-2.275 1.144l-.143-1.066h-.923v9.23h1.066v-3.614c.403.637 1.157 1.092 2.275 1.092 1.833 0 3.185-1.365 3.185-3.393 0-2.158-1.352-3.393-3.185-3.393zm-.104 5.837c-1.3 0-2.184-1.014-2.184-2.47 0-1.417.884-2.418 2.184-2.418 1.313 0 2.197 1.001 2.197 2.444s-.884 2.444-2.197 2.444zm8.095-5.759c-1.183 0-1.69.494-2.002 1.001l-.143-1.001h-.923V328h1.066v-3.38c0-1.053.377-2.21 1.768-2.21h.533v-1.04h-.299zm4.418 6.708c1.937 0 3.289-1.378 3.289-3.393 0-2.015-1.352-3.393-3.289-3.393s-3.289 1.378-3.289 3.393c0 2.015 1.352 3.393 3.289 3.393zm0-.949c-1.313 0-2.197-1.027-2.197-2.444s.884-2.444 2.197-2.444c1.313 0 2.197 1.027 2.197 2.444s-.884 2.444-2.197 2.444zm10.257-4.745c-.403-.637-1.157-1.092-2.275-1.092-1.833 0-3.185 1.365-3.185 3.393 0 2.158 1.352 3.393 3.185 3.393 1.118 0 1.833-.533 2.275-1.144l.143 1.066h.923v-9.1h-1.066v3.484zm-2.171 4.745c-1.313 0-2.197-1.001-2.197-2.444s.884-2.444 2.197-2.444c1.3 0 2.184 1.014 2.184 2.47 0 1.417-.884 2.418-2.184 2.418zm9.85-2.444c0 1.495-.728 2.418-1.937 2.418-1.105 0-1.729-.728-1.729-2.106v-3.627h-1.066v3.692c0 2.197 1.157 3.016 2.613 3.016 1.092 0 1.729-.468 2.119-.962l.143.884h.923v-6.63h-1.066v3.315zm6.016 3.393c1.612 0 2.691-.91 2.951-2.34h-1.131c-.208.845-.858 1.391-1.807 1.391-1.274 0-2.132-.988-2.132-2.431s.858-2.457 2.132-2.457c.975 0 1.625.533 1.82 1.417h1.118c-.273-1.456-1.3-2.366-2.925-2.366-1.924 0-3.237 1.378-3.237 3.406 0 2.067 1.274 3.38 3.211 3.38zm5.134-1.807c0 1.17.455 1.729 1.729 1.729h1.157v-.975h-1.053c-.572 0-.767-.208-.767-.767v-3.913h1.716v-.975h-1.716v-1.859h-1.066v1.859h-1.196v.975h1.196v3.926zm11.229 1.807c1.612 0 2.691-.91 2.951-2.34h-1.131c-.208.845-.858 1.391-1.807 1.391-1.274 0-2.132-.988-2.132-2.431s.858-2.457 2.132-2.457c.975 0 1.625.533 1.82 1.417h1.118c-.273-1.456-1.3-2.366-2.925-2.366-1.924 0-3.237 1.378-3.237 3.406 0 2.067 1.274 3.38 3.211 3.38zm10.503-1.053c-.299 0-.429-.091-.429-.442v-2.899c0-1.547-.975-2.392-2.665-2.392-1.599 0-2.652.767-2.808 2.067h1.066c.13-.676.754-1.118 1.69-1.118 1.04 0 1.651.52 1.651 1.378v.455h-1.95c-1.742 0-2.665.741-2.665 2.067 0 1.209.988 1.937 2.444 1.937 1.144 0 1.807-.507 2.223-1.105.013.65.312 1.027 1.196 1.027h.585v-.975h-.338zm-1.495-1.729c0 1.105-.767 1.872-2.093 1.872-.884 0-1.443-.442-1.443-1.092 0-.754.533-1.105 1.482-1.105h2.054v.325zm3.666.975c0 1.17.455 1.729 1.729 1.729h1.157v-.975h-1.053c-.572 0-.767-.208-.767-.767v-3.913h1.716v-.975h-1.716v-1.859h-1.066v1.859h-1.196v.975h1.196v3.926zm10.091.754c-.299 0-.429-.091-.429-.442v-2.899c0-1.547-.975-2.392-2.665-2.392-1.599 0-2.652.767-2.808 2.067h1.066c.13-.676.754-1.118 1.69-1.118 1.04 0 1.651.52 1.651 1.378v.455h-1.95c-1.742 0-2.665.741-2.665 2.067 0 1.209.988 1.937 2.444 1.937 1.144 0 1.807-.507 2.223-1.105.013.65.312 1.027 1.196 1.027h.585v-.975h-.338zm-1.495-1.729c0 1.105-.767 1.872-2.093 1.872-.884 0-1.443-.442-1.443-1.092 0-.754.533-1.105 1.482-1.105h2.054v.325zM728.3 328h1.066v-9.1H728.3v9.1zm6.101.078c1.937 0 3.289-1.378 3.289-3.393 0-2.015-1.352-3.393-3.289-3.393s-3.289 1.378-3.289 3.393c0 2.015 1.352 3.393 3.289 3.393zm0-.949c-1.313 0-2.197-1.027-2.197-2.444s.884-2.444 2.197-2.444c1.313 0 2.197 1.027 2.197 2.444s-.884 2.444-2.197 2.444zm10.258-4.615c-.416-.741-1.157-1.222-2.275-1.222-1.833 0-3.185 1.365-3.185 3.393 0 2.158 1.352 3.393 3.185 3.393 1.118 0 1.833-.468 2.275-1.222v.78c0 1.443-.754 2.093-2.145 2.093-1.105 0-1.846-.468-2.028-1.3h-1.092c.169 1.456 1.352 2.249 3.042 2.249 2.275 0 3.289-1.092 3.289-3.003v-6.305h-.923l-.143 1.144zm-2.171 4.615c-1.313 0-2.197-1.001-2.197-2.444s.884-2.444 2.197-2.444c1.3 0 2.184 1.014 2.184 2.47 0 1.417-.884 2.418-2.184 2.418zm6.522-1.846l.156-6.383h-1.144l.169 6.383h.819zm-1.157 2.067c0 .442.312.728.741.728s.741-.286.741-.728-.312-.728-.741-.728-.741.286-.741.728z" fill="#2E4E4A"/><path stroke="#F7F7F7" d="M522 91.5H202M774 131.5H202M774 171.5H202M774 211.5H202M774 251.5H202M774 331.5H202M774 291.5H202M774 371.5H202M522 411.5H202"/><path d="M367.5 177a5.5 5.5 0 11-11 0 5.5 5.5 0 1111 0z" fill="#2E4E4A" stroke="#A7C8C9"/><path d="M552.5 205a5.5 5.5 0 11-11 0 5.5 5.5 0 1111 0z" fill="#CB722A" stroke="#F8F6E3"/><path d="M608.5 297a5.5 5.5 0 11-11 0 5.5 5.5 0 1111 0z" fill="#2E4E4A" stroke="#A7C8C9"/><path d="M326.5 217a5.5 5.5 0 11-11 0 5.5 5.5 0 1111 0z" fill="#CB722A" stroke="#F8F6E3"/><path d="M361.5 285a5.5 5.5 0 11-11 0 5.5 5.5 0 1111 0z" fill="#2E4E4A" stroke="#A7C8C9"/></svg>