<svg width="975" height="322" fill="none" xmlns="http://www.w3.org/2000/svg"><path fill="#F7F7F7" d="M0 0h975v322H0z"/><rect width="72" height="16" rx="4" transform="matrix(-1 0 0 1 369 148)" fill="#917EF3"/><rect width="72" height="16" rx="4" transform="matrix(-1 0 0 1 698 148)" fill="#917EF3"/><rect width="16" height="16" rx="4" transform="matrix(-1 0 0 1 313 177)" fill="#917EF3" fill-opacity=".5"/><rect width="16" height="16" rx="4" transform="matrix(-1 0 0 1 642 177)" fill="#917EF3" fill-opacity=".5"/><rect width="11" height="16" rx="4" transform="matrix(-1 0 0 1 308 207)" fill="#917EF3" fill-opacity=".5"/><rect width="11" height="16" rx="4" transform="matrix(-1 0 0 1 637 207)" fill="#917EF3" fill-opacity=".5"/><rect width="11" height="16" rx="4" transform="matrix(-1 0 0 1 308 251)" fill="#917EF3" fill-opacity=".5"/><rect x="-.5" y=".5" width="280" height="113" rx="3.5" transform="matrix(-1 0 0 1 420 128)" stroke="#333293"/><rect x="-.5" y=".5" width="248" height="113" rx="3.5" transform="matrix(-1 0 0 1 753 128)" stroke="#333293"/><path d="M734 156h47" stroke="#000" stroke-width="1.5" stroke-linecap="round" stroke-dasharray="0.5 8"/><circle cx="802.5" cy="154.5" fill="#C4BBF5" r="32.5"/><path d="M238.627 155.814c0 2.8 1.274 4.27 3.724 4.27s3.752-1.47 3.752-4.27V150.2h-1.218v5.684c0 2.03-.812 3.08-2.534 3.08-1.694 0-2.506-1.05-2.506-3.08V150.2h-1.218v5.614zm13.218-3.038c-1.204 0-1.932.504-2.352 1.05l-.154-.966h-.994V160h1.148v-3.57c0-1.61.812-2.604 2.156-2.604 1.246 0 1.932.784 1.932 2.268V160h1.148v-3.976c0-2.366-1.274-3.248-2.884-3.248zm5.495-1.12c.42 0 .742-.308.742-.742a.721.721 0 00-.742-.742.721.721 0 00-.742.742c0 .434.322.742.742.742zm-.588 8.344h1.148v-7.14h-1.148V160zm3.813-1.862c0 1.26.49 1.862 1.862 1.862h1.246v-1.05h-1.134c-.616 0-.826-.224-.826-.826v-4.214h1.848v-1.05h-1.848v-2.002h-1.148v2.002h-1.288v1.05h1.288v4.228zm7.775 1.946c1.652 0 2.828-1.05 3.108-2.478h-1.162c-.238.924-1.022 1.456-2.03 1.456-1.358 0-2.212-.952-2.254-2.31v-.098h5.544c.014-.168.028-.336.028-.49-.056-2.114-1.372-3.388-3.388-3.388s-3.388 1.484-3.388 3.654c0 2.184 1.4 3.654 3.542 3.654zm-2.268-4.382c.112-1.162 1.078-1.918 2.128-1.918 1.19 0 2.03.686 2.142 1.918h-4.27zm13-1.75c-.434-.686-1.246-1.176-2.45-1.176-1.974 0-3.43 1.47-3.43 3.654 0 2.324 1.456 3.654 3.43 3.654 1.204 0 1.974-.574 2.45-1.232l.154 1.148h.994v-9.8h-1.148v3.752zm-2.338 5.11c-1.414 0-2.366-1.078-2.366-2.632s.952-2.632 2.366-2.632c1.4 0 2.352 1.092 2.352 2.66 0 1.526-.952 2.604-2.352 2.604zM202.073 190v-7.56l5.264 7.56h1.12v-9.8h-1.19v7.56l-5.264-7.56h-1.12v9.8h1.19zm11.967.084c1.652 0 2.828-1.05 3.108-2.478h-1.162c-.238.924-1.022 1.456-2.03 1.456-1.358 0-2.212-.952-2.254-2.31v-.098h5.544c.014-.168.028-.336.028-.49-.056-2.114-1.372-3.388-3.388-3.388s-3.388 1.484-3.388 3.654c0 2.184 1.4 3.654 3.542 3.654zm-2.268-4.382c.112-1.162 1.078-1.918 2.128-1.918 1.19 0 2.03.686 2.142 1.918h-4.27zm7.822 2.436c0 1.26.49 1.862 1.862 1.862h1.246v-1.05h-1.134c-.616 0-.826-.224-.826-.826v-4.214h1.848v-1.05h-1.848v-2.002h-1.148v2.002h-1.288v1.05h1.288v4.228zm8.163-5.362c-1.204 0-1.932.588-2.352 1.26V180.2h-1.148v9.8h1.148v-3.57c0-1.61.826-2.604 2.156-2.604 1.232 0 1.946.784 1.946 2.268V190h1.148v-3.976c0-2.366-1.302-3.248-2.898-3.248zm8.129 7.308c1.652 0 2.828-1.05 3.108-2.478h-1.162c-.238.924-1.022 1.456-2.03 1.456-1.358 0-2.212-.952-2.254-2.31v-.098h5.544c.014-.168.028-.336.028-.49-.056-2.114-1.372-3.388-3.388-3.388s-3.388 1.484-3.388 3.654c0 2.184 1.4 3.654 3.542 3.654zm-2.268-4.382c.112-1.162 1.078-1.918 2.128-1.918 1.19 0 2.03.686 2.142 1.918h-4.27zm10.676-2.842c-1.274 0-1.82.532-2.156 1.078l-.154-1.078h-.994V190h1.148v-3.64c0-1.134.406-2.38 1.904-2.38h.574v-1.12h-.322zm1.877 7.14h1.148v-9.8h-1.148v9.8zm9.595-1.05c-.322 0-.462-.098-.462-.476v-3.122c0-1.666-1.05-2.576-2.87-2.576-1.722 0-2.856.826-3.024 2.226h1.148c.14-.728.812-1.204 1.82-1.204 1.12 0 1.778.56 1.778 1.484v.49h-2.1c-1.876 0-2.87.798-2.87 2.226 0 1.302 1.064 2.086 2.632 2.086 1.232 0 1.946-.546 2.394-1.19.014.7.336 1.106 1.288 1.106h.63v-1.05h-.364zm-1.61-1.862c0 1.19-.826 2.016-2.254 2.016-.952 0-1.554-.476-1.554-1.176 0-.812.574-1.19 1.596-1.19h2.212v.35zm6.916-4.312c-1.204 0-1.932.504-2.352 1.05l-.154-.966h-.994V190h1.148v-3.57c0-1.61.812-2.604 2.156-2.604 1.246 0 1.932.784 1.932 2.268V190h1.148v-3.976c0-2.366-1.274-3.248-2.884-3.248zm10.454 1.176c-.434-.686-1.246-1.176-2.45-1.176-1.974 0-3.43 1.47-3.43 3.654 0 2.324 1.456 3.654 3.43 3.654 1.204 0 1.974-.574 2.45-1.232l.154 1.148h.994v-9.8h-1.148v3.752zm-2.338 5.11c-1.414 0-2.366-1.078-2.366-2.632s.952-2.632 2.366-2.632c1.4 0 2.352 1.092 2.352 2.66 0 1.526-.952 2.604-2.352 2.604zm5.316-1.414c.028 1.568 1.302 2.436 3.15 2.436 1.582 0 2.856-.826 2.856-2.156 0-1.582-1.302-1.89-2.926-2.086-1.036-.126-1.792-.224-1.792-1.008 0-.658.672-1.078 1.666-1.078.98 0 1.652.546 1.736 1.274h1.176c-.112-1.484-1.288-2.24-2.912-2.254-1.61-.014-2.8.84-2.8 2.142 0 1.484 1.274 1.806 2.87 2.002 1.064.126 1.848.196 1.848 1.092 0 .658-.714 1.092-1.722 1.092-1.19 0-1.932-.616-1.974-1.456h-1.176zm-29.912 32.436c2.212 0 3.836-1.26 4.2-3.29h-1.288c-.364 1.372-1.414 2.17-2.926 2.17-2.058 0-3.318-1.61-3.318-3.864 0-2.268 1.316-3.864 3.374-3.864 1.47 0 2.506.812 2.884 2.17h1.288c-.364-2.03-1.946-3.29-4.116-3.29-2.842 0-4.676 2.016-4.676 4.984 0 2.996 1.764 4.984 4.578 4.984zm5.591-6.174h4.144l-4.326 5.222V220h6.048v-1.05h-4.522l4.34-5.222v-.868h-5.684v1.05zm10.433 6.174c1.652 0 2.828-1.05 3.108-2.478h-1.162c-.238.924-1.022 1.456-2.03 1.456-1.358 0-2.212-.952-2.254-2.31v-.098h5.544c.014-.168.028-.336.028-.49-.056-2.114-1.372-3.388-3.388-3.388s-3.388 1.484-3.388 3.654c0 2.184 1.4 3.654 3.542 3.654zm-2.268-4.382c.112-1.162 1.078-1.918 2.128-1.918 1.19 0 2.03.686 2.142 1.918h-4.27zm10.578 4.382c1.736 0 2.898-.98 3.178-2.52h-1.218c-.224.91-.924 1.498-1.946 1.498-1.372 0-2.296-1.064-2.296-2.618 0-1.554.924-2.646 2.296-2.646 1.05 0 1.75.574 1.96 1.526h1.204c-.294-1.568-1.4-2.548-3.15-2.548-2.072 0-3.486 1.484-3.486 3.668 0 2.226 1.372 3.64 3.458 3.64zm8.497-7.308c-1.204 0-1.932.588-2.352 1.26V210.2h-1.148v9.8h1.148v-3.57c0-1.61.826-2.604 2.156-2.604 1.232 0 1.946.784 1.946 2.268V220h1.148v-3.976c0-2.366-1.302-3.248-2.898-3.248zm-4.797 48.038c0 2.8 1.274 4.27 3.724 4.27s3.752-1.47 3.752-4.27V255.2h-1.218v5.684c0 2.03-.812 3.08-2.534 3.08-1.694 0-2.506-1.05-2.506-3.08V255.2h-1.218v5.614zM567.627 155.814c0 2.8 1.274 4.27 3.724 4.27s3.752-1.47 3.752-4.27V150.2h-1.218v5.684c0 2.03-.812 3.08-2.534 3.08-1.694 0-2.506-1.05-2.506-3.08V150.2h-1.218v5.614zm13.218-3.038c-1.204 0-1.932.504-2.352 1.05l-.154-.966h-.994V160h1.148v-3.57c0-1.61.812-2.604 2.156-2.604 1.246 0 1.932.784 1.932 2.268V160h1.148v-3.976c0-2.366-1.274-3.248-2.884-3.248zm5.495-1.12c.42 0 .742-.308.742-.742a.721.721 0 00-.742-.742.721.721 0 00-.742.742c0 .434.322.742.742.742zm-.588 8.344h1.148v-7.14h-1.148V160zm3.813-1.862c0 1.26.49 1.862 1.862 1.862h1.246v-1.05h-1.134c-.616 0-.826-.224-.826-.826v-4.214h1.848v-1.05h-1.848v-2.002h-1.148v2.002h-1.288v1.05h1.288v4.228zm7.775 1.946c1.652 0 2.828-1.05 3.108-2.478h-1.162c-.238.924-1.022 1.456-2.03 1.456-1.358 0-2.212-.952-2.254-2.31v-.098h5.544c.014-.168.028-.336.028-.49-.056-2.114-1.372-3.388-3.388-3.388s-3.388 1.484-3.388 3.654c0 2.184 1.4 3.654 3.542 3.654zm-2.268-4.382c.112-1.162 1.078-1.918 2.128-1.918 1.19 0 2.03.686 2.142 1.918h-4.27zm13-1.75c-.434-.686-1.246-1.176-2.45-1.176-1.974 0-3.43 1.47-3.43 3.654 0 2.324 1.456 3.654 3.43 3.654 1.204 0 1.974-.574 2.45-1.232l.154 1.148h.994v-9.8h-1.148v3.752zm-2.338 5.11c-1.414 0-2.366-1.078-2.366-2.632s.952-2.632 2.366-2.632c1.4 0 2.352 1.092 2.352 2.66 0 1.526-.952 2.604-2.352 2.604zM531.073 190v-7.56l5.264 7.56h1.12v-9.8h-1.19v7.56l-5.264-7.56h-1.12v9.8h1.19zm11.967.084c1.652 0 2.828-1.05 3.108-2.478h-1.162c-.238.924-1.022 1.456-2.03 1.456-1.358 0-2.212-.952-2.254-2.31v-.098h5.544c.014-.168.028-.336.028-.49-.056-2.114-1.372-3.388-3.388-3.388s-3.388 1.484-3.388 3.654c0 2.184 1.4 3.654 3.542 3.654zm-2.268-4.382c.112-1.162 1.078-1.918 2.128-1.918 1.19 0 2.03.686 2.142 1.918h-4.27zm7.822 2.436c0 1.26.49 1.862 1.862 1.862h1.246v-1.05h-1.134c-.616 0-.826-.224-.826-.826v-4.214h1.848v-1.05h-1.848v-2.002h-1.148v2.002h-1.288v1.05h1.288v4.228zm8.163-5.362c-1.204 0-1.932.588-2.352 1.26V180.2h-1.148v9.8h1.148v-3.57c0-1.61.826-2.604 2.156-2.604 1.232 0 1.946.784 1.946 2.268V190h1.148v-3.976c0-2.366-1.302-3.248-2.898-3.248zm8.129 7.308c1.652 0 2.828-1.05 3.108-2.478h-1.162c-.238.924-1.022 1.456-2.03 1.456-1.358 0-2.212-.952-2.254-2.31v-.098h5.544c.014-.168.028-.336.028-.49-.056-2.114-1.372-3.388-3.388-3.388s-3.388 1.484-3.388 3.654c0 2.184 1.4 3.654 3.542 3.654zm-2.268-4.382c.112-1.162 1.078-1.918 2.128-1.918 1.19 0 2.03.686 2.142 1.918h-4.27zm10.676-2.842c-1.274 0-1.82.532-2.156 1.078l-.154-1.078h-.994V190h1.148v-3.64c0-1.134.406-2.38 1.904-2.38h.574v-1.12h-.322zm1.877 7.14h1.148v-9.8h-1.148v9.8zm9.595-1.05c-.322 0-.462-.098-.462-.476v-3.122c0-1.666-1.05-2.576-2.87-2.576-1.722 0-2.856.826-3.024 2.226h1.148c.14-.728.812-1.204 1.82-1.204 1.12 0 1.778.56 1.778 1.484v.49h-2.1c-1.876 0-2.87.798-2.87 2.226 0 1.302 1.064 2.086 2.632 2.086 1.232 0 1.946-.546 2.394-1.19.014.7.336 1.106 1.288 1.106h.63v-1.05h-.364zm-1.61-1.862c0 1.19-.826 2.016-2.254 2.016-.952 0-1.554-.476-1.554-1.176 0-.812.574-1.19 1.596-1.19h2.212v.35zm6.916-4.312c-1.204 0-1.932.504-2.352 1.05l-.154-.966h-.994V190h1.148v-3.57c0-1.61.812-2.604 2.156-2.604 1.246 0 1.932.784 1.932 2.268V190h1.148v-3.976c0-2.366-1.274-3.248-2.884-3.248zm10.454 1.176c-.434-.686-1.246-1.176-2.45-1.176-1.974 0-3.43 1.47-3.43 3.654 0 2.324 1.456 3.654 3.43 3.654 1.204 0 1.974-.574 2.45-1.232l.154 1.148h.994v-9.8h-1.148v3.752zm-2.338 5.11c-1.414 0-2.366-1.078-2.366-2.632s.952-2.632 2.366-2.632c1.4 0 2.352 1.092 2.352 2.66 0 1.526-.952 2.604-2.352 2.604zm5.316-1.414c.028 1.568 1.302 2.436 3.15 2.436 1.582 0 2.856-.826 2.856-2.156 0-1.582-1.302-1.89-2.926-2.086-1.036-.126-1.792-.224-1.792-1.008 0-.658.672-1.078 1.666-1.078.98 0 1.652.546 1.736 1.274h1.176c-.112-1.484-1.288-2.24-2.912-2.254-1.61-.014-2.8.84-2.8 2.142 0 1.484 1.274 1.806 2.87 2.002 1.064.126 1.848.196 1.848 1.092 0 .658-.714 1.092-1.722 1.092-1.19 0-1.932-.616-1.974-1.456h-1.176zm-29.912 32.436c2.212 0 3.836-1.26 4.2-3.29h-1.288c-.364 1.372-1.414 2.17-2.926 2.17-2.058 0-3.318-1.61-3.318-3.864 0-2.268 1.316-3.864 3.374-3.864 1.47 0 2.506.812 2.884 2.17h1.288c-.364-2.03-1.946-3.29-4.116-3.29-2.842 0-4.676 2.016-4.676 4.984 0 2.996 1.764 4.984 4.578 4.984zm5.591-6.174h4.144l-4.326 5.222V220h6.048v-1.05h-4.522l4.34-5.222v-.868h-5.684v1.05zm10.433 6.174c1.652 0 2.828-1.05 3.108-2.478h-1.162c-.238.924-1.022 1.456-2.03 1.456-1.358 0-2.212-.952-2.254-2.31v-.098h5.544c.014-.168.028-.336.028-.49-.056-2.114-1.372-3.388-3.388-3.388s-3.388 1.484-3.388 3.654c0 2.184 1.4 3.654 3.542 3.654zm-2.268-4.382c.112-1.162 1.078-1.918 2.128-1.918 1.19 0 2.03.686 2.142 1.918h-4.27zm10.578 4.382c1.736 0 2.898-.98 3.178-2.52h-1.218c-.224.91-.924 1.498-1.946 1.498-1.372 0-2.296-1.064-2.296-2.618 0-1.554.924-2.646 2.296-2.646 1.05 0 1.75.574 1.96 1.526h1.204c-.294-1.568-1.4-2.548-3.15-2.548-2.072 0-3.486 1.484-3.486 3.668 0 2.226 1.372 3.64 3.458 3.64zm8.497-7.308c-1.204 0-1.932.588-2.352 1.26V210.2h-1.148v9.8h1.148v-3.57c0-1.61.826-2.604 2.156-2.604 1.232 0 1.946.784 1.946 2.268V220h1.148v-3.976c0-2.366-1.302-3.248-2.898-3.248zM285.257 279.3c0 .476.336.784.798.784s.798-.308.798-.784c0-.476-.336-.784-.798-.784s-.798.308-.798.784zm3.445 0c0 .476.336.784.798.784s.798-.308.798-.784c0-.476-.336-.784-.798-.784s-.798.308-.798.784zm3.444 0c0 .476.336.784.798.784s.798-.308.798-.784c0-.476-.336-.784-.798-.784s-.798.308-.798.784zM377.338 152.264c0 .49-.224.84-.686.84h-1.596v1.05h1.582c.308 0 .532-.056.672-.182V161h1.176v-9.8h-1.148v1.064zm2.987 8.736h6.748v-1.078h-5.124l2.94-2.492c1.162-.994 2.114-1.918 2.114-3.388 0-1.764-1.232-2.926-3.346-2.926-1.974 0-3.276 1.316-3.276 3.164v.252h1.176v-.182c0-1.344.84-2.184 2.1-2.184 1.302 0 2.142.7 2.142 1.932 0 1.064-.756 1.82-1.666 2.604l-3.808 3.304V161zm8.5-7.504c0 1.358 1.05 2.352 2.464 2.352s2.464-.994 2.464-2.352c0-1.386-1.05-2.38-2.464-2.38s-2.464.994-2.464 2.38zm2.786 7.504l6.678-9.8h-1.134l-6.678 9.8h1.134zm1.106-7.504c0 .826-.602 1.428-1.428 1.428s-1.428-.602-1.428-1.428c0-.84.602-1.456 1.428-1.456s1.428.616 1.428 1.456zm2.268 5.236c0 1.358 1.05 2.352 2.464 2.352s2.464-.994 2.464-2.352c0-1.386-1.05-2.38-2.464-2.38s-2.464.994-2.464 2.38zm3.892 0c0 .826-.602 1.428-1.428 1.428s-1.428-.602-1.428-1.428c0-.84.602-1.456 1.428-1.456s1.428.616 1.428 1.456zM704.098 152.278h5.628L704.924 161h1.274l4.816-8.974v-.826h-6.916v1.078zm7.934 8.722h6.748v-1.078h-5.124l2.94-2.492c1.162-.994 2.114-1.918 2.114-3.388 0-1.764-1.232-2.926-3.346-2.926-1.974 0-3.276 1.316-3.276 3.164v.252h1.176v-.182c0-1.344.84-2.184 2.1-2.184 1.302 0 2.142.7 2.142 1.932 0 1.064-.756 1.82-1.666 2.604l-3.808 3.304V161zm8.5-7.504c0 1.358 1.05 2.352 2.464 2.352s2.464-.994 2.464-2.352c0-1.386-1.05-2.38-2.464-2.38s-2.464.994-2.464 2.38zm2.786 7.504l6.678-9.8h-1.134l-6.678 9.8h1.134zm1.106-7.504c0 .826-.602 1.428-1.428 1.428s-1.428-.602-1.428-1.428c0-.84.602-1.456 1.428-1.456s1.428.616 1.428 1.456zm2.268 5.236c0 1.358 1.05 2.352 2.464 2.352s2.464-.994 2.464-2.352c0-1.386-1.05-2.38-2.464-2.38s-2.464.994-2.464 2.38zm3.892 0c0 .826-.602 1.428-1.428 1.428s-1.428-.602-1.428-1.428c0-.84.602-1.456 1.428-1.456s1.428.616 1.428 1.456zM794.68 150.744c0 2.037 1.575 3.528 3.696 3.528 2.121 0 3.696-1.491 3.696-3.528 0-2.079-1.575-3.57-3.696-3.57-2.121 0-3.696 1.491-3.696 3.57zM798.859 162l10.017-14.7h-1.701L797.158 162h1.701zm1.659-11.256c0 1.239-.903 2.142-2.142 2.142-1.239 0-2.142-.903-2.142-2.142 0-1.26.903-2.184 2.142-2.184 1.239 0 2.142.924 2.142 2.184zm3.402 7.854c0 2.037 1.575 3.528 3.696 3.528 2.121 0 3.696-1.491 3.696-3.528 0-2.079-1.575-3.57-3.696-3.57-2.121 0-3.696 1.491-3.696 3.57zm5.838 0c0 1.239-.903 2.142-2.142 2.142-1.239 0-2.142-.903-2.142-2.142 0-1.26.903-2.184 2.142-2.184 1.239 0 2.142.924 2.142 2.184zM319.308 190h6.748v-1.078h-5.124l2.94-2.492c1.162-.994 2.114-1.918 2.114-3.388 0-1.764-1.232-2.926-3.346-2.926-1.974 0-3.276 1.316-3.276 3.164v.252h1.176v-.182c0-1.344.84-2.184 2.1-2.184 1.302 0 2.142.7 2.142 1.932 0 1.064-.756 1.82-1.666 2.604l-3.808 3.304V190zm8.388-.7c0 .476.336.784.798.784s.798-.308.798-.784c0-.476-.336-.784-.798-.784s-.798.308-.798.784zm2.803-8.022h5.628L331.325 190h1.274l4.816-8.974v-.826h-6.916v1.078zm8.382 1.218c0 1.358 1.05 2.352 2.464 2.352s2.464-.994 2.464-2.352c0-1.386-1.05-2.38-2.464-2.38s-2.464.994-2.464 2.38zm2.786 7.504l6.678-9.8h-1.134l-6.678 9.8h1.134zm1.106-7.504c0 .826-.602 1.428-1.428 1.428s-1.428-.602-1.428-1.428c0-.84.602-1.456 1.428-1.456s1.428.616 1.428 1.456zm2.268 5.236c0 1.358 1.05 2.352 2.464 2.352s2.464-.994 2.464-2.352c0-1.386-1.05-2.38-2.464-2.38s-2.464.994-2.464 2.38zm3.892 0c0 .826-.602 1.428-1.428 1.428s-1.428-.602-1.428-1.428c0-.84.602-1.456 1.428-1.456s1.428.616 1.428 1.456zM650.338 181.264c0 .49-.224.84-.686.84h-1.596v1.05h1.582c.308 0 .532-.056.672-.182V190h1.176v-9.8h-1.148v1.064zm4.051 7.196c.616 1.008 1.61 1.624 2.968 1.624 2.016 0 3.402-1.4 3.402-3.29 0-2.002-1.358-3.276-3.29-3.276-1.316 0-2.296.644-2.73 1.61-.056.126-.07.21-.084.266-.014-.238-.014-.336-.014-.476 0-2.212.938-3.766 2.646-3.766 1.19 0 1.89.672 2.114 1.666h1.176c-.238-1.638-1.456-2.702-3.234-2.702-2.338 0-3.724 1.946-3.724 5.026 0 1.288.28 2.464.77 3.318zm5.194-1.666c0 1.316-.882 2.254-2.24 2.254-1.344 0-2.24-.91-2.24-2.226 0-1.344.924-2.268 2.282-2.268s2.198.938 2.198 2.24zm3.035-4.298c0 1.358 1.05 2.352 2.464 2.352s2.464-.994 2.464-2.352c0-1.386-1.05-2.38-2.464-2.38s-2.464.994-2.464 2.38zm2.786 7.504l6.678-9.8h-1.134l-6.678 9.8h1.134zm1.106-7.504c0 .826-.602 1.428-1.428 1.428s-1.428-.602-1.428-1.428c0-.84.602-1.456 1.428-1.456s1.428.616 1.428 1.456zm2.268 5.236c0 1.358 1.05 2.352 2.464 2.352s2.464-.994 2.464-2.352c0-1.386-1.05-2.38-2.464-2.38s-2.464.994-2.464 2.38zm3.892 0c0 .826-.602 1.428-1.428 1.428s-1.428-.602-1.428-1.428c0-.84.602-1.456 1.428-1.456s1.428.616 1.428 1.456zM316.338 211.264c0 .49-.224.84-.686.84h-1.596v1.05h1.582c.308 0 .532-.056.672-.182V220h1.176v-9.8h-1.148v1.064zm3.323 8.036c0 .476.336.784.798.784s.798-.308.798-.784c0-.476-.336-.784-.798-.784s-.798.308-.798.784zm6.257.784c2.338 0 3.724-1.946 3.724-5.026 0-1.288-.28-2.464-.77-3.318-.616-1.008-1.61-1.624-2.968-1.624-2.016 0-3.402 1.4-3.402 3.29 0 2.002 1.358 3.276 3.29 3.276 1.316 0 2.296-.644 2.73-1.61.056-.126.07-.21.084-.266.014.238.014.336.014.476 0 2.212-.938 3.766-2.646 3.766-1.19 0-1.89-.672-2.114-1.666h-1.176c.238 1.638 1.456 2.702 3.234 2.702zm-.042-4.438c-1.358 0-2.198-.938-2.198-2.24 0-1.316.882-2.254 2.24-2.254 1.344 0 2.24.91 2.24 2.226 0 1.344-.924 2.268-2.282 2.268zm5.681-3.15c0 1.358 1.05 2.352 2.464 2.352s2.464-.994 2.464-2.352c0-1.386-1.05-2.38-2.464-2.38s-2.464.994-2.464 2.38zm2.786 7.504l6.678-9.8h-1.134l-6.678 9.8h1.134zm1.106-7.504c0 .826-.602 1.428-1.428 1.428s-1.428-.602-1.428-1.428c0-.84.602-1.456 1.428-1.456s1.428.616 1.428 1.456zm2.268 5.236c0 1.358 1.05 2.352 2.464 2.352s2.464-.994 2.464-2.352c0-1.386-1.05-2.38-2.464-2.38s-2.464.994-2.464 2.38zm3.892 0c0 .826-.602 1.428-1.428 1.428s-1.428-.602-1.428-1.428c0-.84.602-1.456 1.428-1.456s1.428.616 1.428 1.456zM645.338 211.264c0 .49-.224.84-.686.84h-1.596v1.05h1.582c.308 0 .532-.056.672-.182V220h1.176v-9.8h-1.148v1.064zm5.017 0c0 .49-.224.84-.686.84h-1.596v1.05h1.582c.308 0 .532-.056.672-.182V220h1.176v-9.8h-1.148v1.064zm3.435 1.232c0 1.358 1.05 2.352 2.464 2.352s2.464-.994 2.464-2.352c0-1.386-1.05-2.38-2.464-2.38s-2.464.994-2.464 2.38zm2.786 7.504l6.678-9.8h-1.134l-6.678 9.8h1.134zm1.106-7.504c0 .826-.602 1.428-1.428 1.428s-1.428-.602-1.428-1.428c0-.84.602-1.456 1.428-1.456s1.428.616 1.428 1.456zm2.268 5.236c0 1.358 1.05 2.352 2.464 2.352s2.464-.994 2.464-2.352c0-1.386-1.05-2.38-2.464-2.38s-2.464.994-2.464 2.38zm3.892 0c0 .826-.602 1.428-1.428 1.428s-1.428-.602-1.428-1.428c0-.84.602-1.456 1.428-1.456s1.428.616 1.428 1.456zM316.338 255.264c0 .49-.224.84-.686.84h-1.596v1.05h1.582c.308 0 .532-.056.672-.182V264h1.176v-9.8h-1.148v1.064zm3.323 8.036c0 .476.336.784.798.784s.798-.308.798-.784c0-.476-.336-.784-.798-.784s-.798.308-.798.784zm8.24-4.368c.952-.21 1.68-1.092 1.68-2.212 0-1.54-1.288-2.604-3.29-2.604s-3.29 1.064-3.29 2.604c0 1.176.742 2.002 1.68 2.212-1.106.252-1.96 1.106-1.96 2.436 0 1.582 1.358 2.716 3.57 2.716 2.212 0 3.57-1.134 3.57-2.716 0-1.344-.868-2.184-1.96-2.436zm-3.696-2.212c0-.952.826-1.596 2.086-1.596 1.26 0 2.086.644 2.086 1.596 0 .966-.826 1.61-2.086 1.61-1.26 0-2.086-.644-2.086-1.61zm2.086 6.356c-1.386 0-2.366-.742-2.366-1.792 0-1.036.966-1.778 2.366-1.778 1.4 0 2.366.742 2.366 1.778 0 1.05-.966 1.792-2.366 1.792zm5.444-6.58c0 1.358 1.05 2.352 2.464 2.352s2.464-.994 2.464-2.352c0-1.386-1.05-2.38-2.464-2.38s-2.464.994-2.464 2.38zm2.786 7.504l6.678-9.8h-1.134l-6.678 9.8h1.134zm1.106-7.504c0 .826-.602 1.428-1.428 1.428s-1.428-.602-1.428-1.428c0-.84.602-1.456 1.428-1.456s1.428.616 1.428 1.456zm2.268 5.236c0 1.358 1.05 2.352 2.464 2.352s2.464-.994 2.464-2.352c0-1.386-1.05-2.38-2.464-2.38s-2.464.994-2.464 2.38zm3.892 0c0 .826-.602 1.428-1.428 1.428s-1.428-.602-1.428-1.428c0-.84.602-1.456 1.428-1.456s1.428.616 1.428 1.456zM142.672 48.016c0 .56-.256.96-.784.96h-1.824v1.2h1.808c.352 0 .608-.064.768-.208V58h1.344V46.8h-1.312v1.216zm3.19-1.696c1.792 2.336 2.464 4.432 2.464 6.88 0 2.432-.688 4.528-2.464 6.88h1.44c1.648-2.144 2.32-4.464 2.32-6.88 0-2.464-.688-4.752-2.32-6.88h-1.44zm15.56 11.776c2.528 0 4.384-1.44 4.8-3.76h-1.472c-.416 1.568-1.616 2.48-3.344 2.48-2.352 0-3.792-1.84-3.792-4.416 0-2.592 1.504-4.416 3.856-4.416 1.68 0 2.864.928 3.296 2.48h1.472c-.416-2.32-2.224-3.76-4.704-3.76-3.248 0-5.344 2.304-5.344 5.696 0 3.424 2.016 5.696 5.232 5.696zm10.529 0c2.384 0 4.048-1.696 4.048-4.176 0-2.48-1.664-4.176-4.048-4.176-2.384 0-4.048 1.696-4.048 4.176 0 2.48 1.664 4.176 4.048 4.176zm0-1.168c-1.616 0-2.704-1.264-2.704-3.008s1.088-3.008 2.704-3.008 2.704 1.264 2.704 3.008-1.088 3.008-2.704 3.008zm10.033-7.184c-1.376 0-2.208.576-2.688 1.2l-.176-1.104h-1.136V58h1.312v-4.08c0-1.84.928-2.976 2.464-2.976 1.424 0 2.208.896 2.208 2.592V58h1.312v-4.544c0-2.704-1.456-3.712-3.296-3.712zm5.112 5.568c.032 1.792 1.488 2.784 3.6 2.784 1.808 0 3.264-.944 3.264-2.464 0-1.808-1.488-2.16-3.344-2.384-1.184-.144-2.048-.256-2.048-1.152 0-.752.768-1.232 1.904-1.232 1.12 0 1.888.624 1.984 1.456h1.344c-.128-1.696-1.472-2.56-3.328-2.576-1.84-.016-3.2.96-3.2 2.448 0 1.696 1.456 2.064 3.28 2.288 1.216.144 2.112.224 2.112 1.248 0 .752-.816 1.248-1.968 1.248-1.36 0-2.208-.704-2.256-1.664h-1.344zm9.473-6.848c.48 0 .848-.352.848-.848a.824.824 0 00-.848-.848.824.824 0 00-.848.848c0 .496.368.848.848.848zM195.897 58h1.312v-8.16h-1.312V58zm10.021-6.912c-.496-.784-1.424-1.344-2.8-1.344-2.256 0-3.92 1.68-3.92 4.176 0 2.656 1.664 4.176 3.92 4.176 1.376 0 2.256-.656 2.8-1.408l.176 1.312h1.136V46.8h-1.312v4.288zm-2.672 5.84c-1.616 0-2.704-1.232-2.704-3.008s1.088-3.008 2.704-3.008c1.6 0 2.688 1.248 2.688 3.04 0 1.744-1.088 2.976-2.688 2.976zm10.011 1.168c1.888 0 3.232-1.2 3.552-2.832h-1.328c-.272 1.056-1.168 1.664-2.32 1.664-1.552 0-2.528-1.088-2.576-2.64v-.112h6.336c.016-.192.032-.384.032-.56-.064-2.416-1.568-3.872-3.872-3.872s-3.872 1.696-3.872 4.176c0 2.496 1.6 4.176 4.048 4.176zm-2.592-5.008c.128-1.328 1.232-2.192 2.432-2.192 1.36 0 2.32.784 2.448 2.192h-4.88zm12.041-3.248c-1.456 0-2.08.608-2.464 1.232l-.176-1.232h-1.136V58h1.312v-4.16c0-1.296.464-2.72 2.176-2.72h.656v-1.28h-.368zm10.413 8.256c2.384 0 4.048-1.696 4.048-4.176 0-2.48-1.664-4.176-4.048-4.176-2.384 0-4.048 1.696-4.048 4.176 0 2.48 1.664 4.176 4.048 4.176zm0-1.168c-1.616 0-2.704-1.264-2.704-3.008s1.088-3.008 2.704-3.008 2.704 1.264 2.704 3.008-1.088 3.008-2.704 3.008zm10.033-7.184c-1.376 0-2.208.576-2.688 1.2l-.176-1.104h-1.136V58h1.312v-4.08c0-1.84.928-2.976 2.464-2.976 1.424 0 2.208.896 2.208 2.592V58h1.312v-4.544c0-2.704-1.456-3.712-3.296-3.712zM248.6 58h1.312V46.8H248.6V58zm5.958.048l-.4.992c-.304.768-.432.96-1.184.96h-1.168v1.2h1.568c1.152 0 1.456-.512 1.968-1.824l3.76-9.536h-1.392l-2.432 6.512-2.512-6.512h-1.392l3.184 8.208zm11.278-2.176c0 1.44.56 2.128 2.128 2.128h1.424v-1.2h-1.296c-.704 0-.944-.256-.944-.944V51.04h2.112v-1.2h-2.112v-2.288h-1.312v2.288h-1.472v1.2h1.472v4.832zm9.169-6.128c-1.376 0-2.208.672-2.688 1.44V46.8h-1.312V58h1.312v-4.08c0-1.84.944-2.976 2.464-2.976 1.408 0 2.224.896 2.224 2.592V58h1.312v-4.544c0-2.704-1.488-3.712-3.312-3.712zm9.13 8.352c1.888 0 3.232-1.2 3.552-2.832h-1.328c-.272 1.056-1.168 1.664-2.32 1.664-1.552 0-2.528-1.088-2.576-2.64v-.112h6.336c.016-.192.032-.384.032-.56-.064-2.416-1.568-3.872-3.872-3.872s-3.872 1.696-3.872 4.176c0 2.496 1.6 4.176 4.048 4.176zm-2.592-5.008c.128-1.328 1.232-2.192 2.432-2.192 1.36 0 2.32.784 2.448 2.192h-4.88zm13.541 2.784c0 1.44.56 2.128 2.128 2.128h1.424v-1.2h-1.296c-.704 0-.944-.256-.944-.944V51.04h2.112v-1.2h-2.112v-2.288h-1.312v2.288h-1.472v1.2h1.472v4.832zm8.726 2.224c2.384 0 4.048-1.696 4.048-4.176 0-2.48-1.664-4.176-4.048-4.176-2.384 0-4.048 1.696-4.048 4.176 0 2.48 1.664 4.176 4.048 4.176zm0-1.168c-1.616 0-2.704-1.264-2.704-3.008s1.088-3.008 2.704-3.008 2.704 1.264 2.704 3.008-1.088 3.008-2.704 3.008zm10.144-7.184c-1.376 0-2.256.656-2.8 1.408l-.176-1.312h-1.136V61.2h1.312v-4.448c.496.784 1.424 1.344 2.8 1.344 2.256 0 3.92-1.68 3.92-4.176 0-2.656-1.664-4.176-3.92-4.176zm-.128 7.184c-1.6 0-2.688-1.248-2.688-3.04 0-1.744 1.088-2.976 2.688-2.976 1.616 0 2.704 1.232 2.704 3.008s-1.088 3.008-2.704 3.008zm16.183-4.752c1.072-.288 1.808-1.104 1.808-2.512 0-1.76-1.456-2.96-3.76-2.96-2.208 0-3.744 1.36-3.76 3.328h1.328c.016-1.28 1.04-2.128 2.448-2.128 1.344 0 2.368.704 2.368 1.84 0 1.136-.832 1.968-2.496 1.968h-.88v1.168h.96c1.744 0 2.704.752 2.704 1.92 0 1.28-1.12 2.096-2.576 2.096-1.584 0-2.736-.88-2.752-2.352h-1.328c0 2.224 1.568 3.552 4 3.552s4.032-1.296 4.032-3.2c0-1.712-1.072-2.528-2.096-2.72zm9.393 3.696c0 1.44.56 2.128 2.128 2.128h1.424v-1.2h-1.296c-.704 0-.944-.256-.944-.944V51.04h2.112v-1.2h-2.112v-2.288h-1.312v2.288h-1.472v1.2h1.472v4.832zm8.725 2.224c2.384 0 4.048-1.696 4.048-4.176 0-2.48-1.664-4.176-4.048-4.176-2.384 0-4.048 1.696-4.048 4.176 0 2.48 1.664 4.176 4.048 4.176zm0-1.168c-1.616 0-2.704-1.264-2.704-3.008s1.088-3.008 2.704-3.008 2.704 1.264 2.704 3.008-1.088 3.008-2.704 3.008zM354.16 58h1.312v-2.144l1.648-1.696 2.704 3.84h1.584L358 53.216l3.184-3.376h-1.616l-4.096 4.336V46.8h-1.312V58zm11.943.096c1.888 0 3.232-1.2 3.552-2.832h-1.328c-.272 1.056-1.168 1.664-2.32 1.664-1.552 0-2.528-1.088-2.576-2.64v-.112h6.336c.016-.192.032-.384.032-.56-.064-2.416-1.568-3.872-3.872-3.872s-3.872 1.696-3.872 4.176c0 2.496 1.6 4.176 4.048 4.176zm-2.592-5.008c.128-1.328 1.232-2.192 2.432-2.192 1.36 0 2.32.784 2.448 2.192h-4.88zm12.265-3.344c-1.376 0-2.208.576-2.688 1.2l-.176-1.104h-1.136V58h1.312v-4.08c0-1.84.928-2.976 2.464-2.976 1.424 0 2.208.896 2.208 2.592V58h1.312v-4.544c0-2.704-1.456-3.712-3.296-3.712zm5.113 5.568c.032 1.792 1.488 2.784 3.6 2.784 1.808 0 3.264-.944 3.264-2.464 0-1.808-1.488-2.16-3.344-2.384-1.184-.144-2.048-.256-2.048-1.152 0-.752.768-1.232 1.904-1.232 1.12 0 1.888.624 1.984 1.456h1.344c-.128-1.696-1.472-2.56-3.328-2.576-1.84-.016-3.2.96-3.2 2.448 0 1.696 1.456 2.064 3.28 2.288 1.216.144 2.112.224 2.112 1.248 0 .752-.816 1.248-1.968 1.248-1.36 0-2.208-.704-2.256-1.664h-1.344zm8.515 1.888c0 .544.384.896.912.896s.912-.352.912-.896-.384-.896-.912-.896-.912.352-.912.896zM141.088 82h1.392V70.8h-1.392V82zm10.283-6.752c-.512-.912-1.424-1.504-2.8-1.504-2.256 0-3.92 1.68-3.92 4.176 0 2.656 1.664 4.176 3.92 4.176 1.376 0 2.256-.576 2.8-1.504v.96c0 1.776-.928 2.576-2.64 2.576-1.36 0-2.272-.576-2.496-1.6h-1.344c.208 1.792 1.664 2.768 3.744 2.768 2.8 0 4.048-1.344 4.048-3.696v-7.76h-1.136l-.176 1.408zm-2.672 5.68c-1.616 0-2.704-1.232-2.704-3.008s1.088-3.008 2.704-3.008c1.6 0 2.688 1.248 2.688 3.04 0 1.744-1.088 2.976-2.688 2.976zm10.251-7.184c-1.376 0-2.208.576-2.688 1.2l-.176-1.104h-1.136V82h1.312v-4.08c0-1.84.928-2.976 2.464-2.976 1.424 0 2.208.896 2.208 2.592V82h1.312v-4.544c0-2.704-1.456-3.712-3.296-3.712zm9.115 8.352c2.384 0 4.048-1.696 4.048-4.176 0-2.48-1.664-4.176-4.048-4.176-2.384 0-4.048 1.696-4.048 4.176 0 2.48 1.664 4.176 4.048 4.176zm0-1.168c-1.616 0-2.704-1.264-2.704-3.008s1.088-3.008 2.704-3.008 2.704 1.264 2.704 3.008-1.088 3.008-2.704 3.008zm9.808-7.088c-1.456 0-2.08.608-2.464 1.232l-.176-1.232h-1.136V82h1.312v-4.16c0-1.296.464-2.72 2.176-2.72h.656v-1.28h-.368zm5.277 8.256c1.888 0 3.232-1.2 3.552-2.832h-1.328c-.272 1.056-1.168 1.664-2.32 1.664-1.552 0-2.528-1.088-2.576-2.64v-.112h6.336c.016-.192.032-.384.032-.56-.064-2.416-1.568-3.872-3.872-3.872s-3.872 1.696-3.872 4.176c0 2.496 1.6 4.176 4.048 4.176zm-2.592-5.008c.128-1.328 1.232-2.192 2.432-2.192 1.36 0 2.32.784 2.448 2.192h-4.88zm20.148 3.712c-.368 0-.528-.112-.528-.544v-3.568c0-1.904-1.2-2.944-3.28-2.944-1.968 0-3.264.944-3.456 2.544h1.312c.16-.832.928-1.376 2.08-1.376 1.28 0 2.032.64 2.032 1.696v.56h-2.4c-2.144 0-3.28.912-3.28 2.544 0 1.488 1.216 2.384 3.008 2.384 1.408 0 2.224-.624 2.736-1.36.016.8.384 1.264 1.472 1.264h.72v-1.2h-.416zm-1.84-2.128c0 1.36-.944 2.304-2.576 2.304-1.088 0-1.776-.544-1.776-1.344 0-.928.656-1.36 1.824-1.36h2.528v.4zM202.611 82h1.312V70.8h-1.312V82zm3.589 0h1.312V70.8H206.2V82zm12.017.096c2.384 0 4.048-1.696 4.048-4.176 0-2.48-1.664-4.176-4.048-4.176-2.384 0-4.048 1.696-4.048 4.176 0 2.48 1.664 4.176 4.048 4.176zm0-1.168c-1.616 0-2.704-1.264-2.704-3.008s1.088-3.008 2.704-3.008 2.704 1.264 2.704 3.008-1.088 3.008-2.704 3.008zm6.547-1.056c0 1.44.56 2.128 2.128 2.128h1.424v-1.2h-1.296c-.704 0-.944-.256-.944-.944V75.04h2.112v-1.2h-2.112v-2.288h-1.312v2.288h-1.472v1.2h1.472v4.832zm9.169-6.128c-1.376 0-2.208.672-2.688 1.44V70.8h-1.312V82h1.312v-4.08c0-1.84.944-2.976 2.464-2.976 1.408 0 2.224.896 2.224 2.592V82h1.312v-4.544c0-2.704-1.488-3.712-3.312-3.712zm9.131 8.352c1.888 0 3.232-1.2 3.552-2.832h-1.328c-.272 1.056-1.168 1.664-2.32 1.664-1.552 0-2.528-1.088-2.576-2.64v-.112h6.336c.016-.192.032-.384.032-.56-.064-2.416-1.568-3.872-3.872-3.872s-3.872 1.696-3.872 4.176c0 2.496 1.6 4.176 4.048 4.176zm-2.592-5.008c.128-1.328 1.232-2.192 2.432-2.192 1.36 0 2.32.784 2.448 2.192h-4.88zm12.041-3.248c-1.456 0-2.08.608-2.464 1.232l-.176-1.232h-1.136V82h1.312v-4.16c0-1.296.464-2.72 2.176-2.72h.656v-1.28h-.368zm1.477 5.472c.032 1.792 1.488 2.784 3.6 2.784 1.808 0 3.264-.944 3.264-2.464 0-1.808-1.488-2.16-3.344-2.384-1.184-.144-2.048-.256-2.048-1.152 0-.752.768-1.232 1.904-1.232 1.12 0 1.888.624 1.984 1.456h1.344c-.128-1.696-1.472-2.56-3.328-2.576-1.84-.016-3.2.96-3.2 2.448 0 1.696 1.456 2.064 3.28 2.288 1.216.144 2.112.224 2.112 1.248 0 .752-.816 1.248-1.968 1.248-1.36 0-2.208-.704-2.256-1.664h-1.344zm8.515 1.888c0 .544.384.896.912.896s.912-.352.912-.896-.384-.896-.912-.896-.912.352-.912.896zM505.352 58h7.712v-1.232h-5.856l3.36-2.848c1.328-1.136 2.416-2.192 2.416-3.872 0-2.016-1.408-3.344-3.824-3.344-2.256 0-3.744 1.504-3.744 3.616v.288h1.344V50.4c0-1.536.96-2.496 2.4-2.496 1.488 0 2.448.8 2.448 2.208 0 1.216-.864 2.08-1.904 2.976l-4.352 3.776V58zm8.978-11.68c1.792 2.336 2.464 4.432 2.464 6.88 0 2.432-.688 4.528-2.464 6.88h1.44c1.648-2.144 2.32-4.464 2.32-6.88 0-2.464-.688-4.752-2.32-6.88h-1.44zm10.297 8.016c.08 2.208 1.68 3.76 4.416 3.76 2.352 0 3.984-1.36 3.984-3.296 0-2.176-1.872-2.784-3.696-3.088-1.68-.288-3.04-.56-3.04-1.904 0-1.2.976-1.84 2.432-1.84 1.52 0 2.56.848 2.72 2.144h1.44c-.128-2.016-1.664-3.408-4.16-3.408-2.272 0-3.824 1.28-3.824 3.184 0 2.176 1.856 2.768 3.664 3.072 1.696.288 3.072.576 3.072 1.968 0 1.216-1.072 1.904-2.576 1.904-1.712 0-2.88-.992-2.992-2.496h-1.44zm17.671 2.464c-.368 0-.528-.112-.528-.544v-3.568c0-1.904-1.2-2.944-3.28-2.944-1.968 0-3.264.944-3.456 2.544h1.312c.16-.832.928-1.376 2.08-1.376 1.28 0 2.032.64 2.032 1.696v.56h-2.4c-2.144 0-3.28.912-3.28 2.544 0 1.488 1.216 2.384 3.008 2.384 1.408 0 2.224-.624 2.736-1.36.016.8.384 1.264 1.472 1.264h.72v-1.2h-.416zm-1.84-2.128c0 1.36-.944 2.304-2.576 2.304-1.088 0-1.776-.544-1.776-1.344 0-.928.656-1.36 1.824-1.36h2.528v.4zm12.848-4.928c-1.456 0-2.336.672-2.832 1.552-.464-1.04-1.44-1.552-2.576-1.552-1.264 0-1.952.624-2.384 1.216l-.176-1.12h-1.136V58h1.312v-4.304c0-1.632.816-2.752 2.16-2.752 1.248 0 1.968.832 1.968 2.432V58h1.312v-4.368c0-1.664.832-2.688 2.192-2.688 1.232 0 1.936.832 1.936 2.432V58h1.312v-4.704c0-2.576-1.392-3.552-3.088-3.552zm9.363 0c-1.376 0-2.256.656-2.8 1.408l-.176-1.312h-1.136V61.2h1.312v-4.448c.496.784 1.424 1.344 2.8 1.344 2.256 0 3.92-1.68 3.92-4.176 0-2.656-1.664-4.176-3.92-4.176zm-.128 7.184c-1.6 0-2.688-1.248-2.688-3.04 0-1.744 1.088-2.976 2.688-2.976 1.616 0 2.704 1.232 2.704 3.008s-1.088 3.008-2.704 3.008zM568.569 58h1.312V46.8h-1.312V58zm7.349.096c1.888 0 3.232-1.2 3.552-2.832h-1.328c-.272 1.056-1.168 1.664-2.32 1.664-1.552 0-2.528-1.088-2.576-2.64v-.112h6.336c.016-.192.032-.384.032-.56-.064-2.416-1.568-3.872-3.872-3.872s-3.872 1.696-3.872 4.176c0 2.496 1.6 4.176 4.048 4.176zm-2.592-5.008c.128-1.328 1.232-2.192 2.432-2.192 1.36 0 2.32.784 2.448 2.192h-4.88zm12.069-2.048h1.472V58h1.312v-6.96h2.304v-1.2h-2.304v-.944c0-.624.24-.896.896-.896h1.408v-1.2h-1.488c-1.52 0-2.128.688-2.128 2.128v.912h-1.472v1.2zm10.291-1.2c-1.456 0-2.08.608-2.464 1.232l-.176-1.232h-1.136V58h1.312v-4.16c0-1.296.464-2.72 2.176-2.72h.656v-1.28h-.368zm5.277 8.256c2.384 0 4.048-1.696 4.048-4.176 0-2.48-1.664-4.176-4.048-4.176-2.384 0-4.048 1.696-4.048 4.176 0 2.48 1.664 4.176 4.048 4.176zm0-1.168c-1.616 0-2.704-1.264-2.704-3.008s1.088-3.008 2.704-3.008 2.704 1.264 2.704 3.008-1.088 3.008-2.704 3.008zm15.136-7.184c-1.456 0-2.336.672-2.832 1.552-.464-1.04-1.44-1.552-2.576-1.552-1.264 0-1.952.624-2.384 1.216l-.176-1.12h-1.136V58h1.312v-4.304c0-1.632.816-2.752 2.16-2.752 1.248 0 1.968.832 1.968 2.432V58h1.312v-4.368c0-1.664.832-2.688 2.192-2.688 1.232 0 1.936.832 1.936 2.432V58h1.312v-4.704c0-2.576-1.392-3.552-3.088-3.552zm10.527 6.128c0 1.44.56 2.128 2.128 2.128h1.424v-1.2h-1.296c-.704 0-.944-.256-.944-.944V51.04h2.112v-1.2h-2.112v-2.288h-1.312v2.288h-1.472v1.2h1.472v4.832zm9.169-6.128c-1.376 0-2.208.672-2.688 1.44V46.8h-1.312V58h1.312v-4.08c0-1.84.944-2.976 2.464-2.976 1.408 0 2.224.896 2.224 2.592V58h1.312v-4.544c0-2.704-1.488-3.712-3.312-3.712zm9.13 8.352c1.888 0 3.232-1.2 3.552-2.832h-1.328c-.272 1.056-1.168 1.664-2.32 1.664-1.552 0-2.528-1.088-2.576-2.64v-.112h6.336c.016-.192.032-.384.032-.56-.064-2.416-1.568-3.872-3.872-3.872s-3.872 1.696-3.872 4.176c0 2.496 1.6 4.176 4.048 4.176zm-2.592-5.008c.128-1.328 1.232-2.192 2.432-2.192 1.36 0 2.32.784 2.448 2.192h-4.88zm17.369-3.344c-1.455 0-2.336.672-2.832 1.552-.464-1.04-1.44-1.552-2.576-1.552-1.264 0-1.952.624-2.384 1.216l-.176-1.12h-1.136V58h1.312v-4.304c0-1.632.816-2.752 2.16-2.752 1.248 0 1.968.832 1.968 2.432V58h1.312v-4.368c0-1.664.832-2.688 2.192-2.688 1.232 0 1.937.832 1.937 2.432V58h1.311v-4.704c0-2.576-1.392-3.552-3.088-3.552zm14.031 0c-1.376 0-2.256.656-2.8 1.408V46.8h-1.312V58h1.136l.176-1.248c.496.784 1.424 1.344 2.8 1.344 2.256 0 3.92-1.68 3.92-4.176 0-2.656-1.664-4.176-3.92-4.176zm-.128 7.184c-1.6 0-2.688-1.248-2.688-3.04 0-1.744 1.088-2.976 2.688-2.976 1.616 0 2.704 1.232 2.704 3.008s-1.088 3.008-2.704 3.008zm13.243-.128c-.368 0-.528-.112-.528-.544v-3.568c0-1.904-1.2-2.944-3.28-2.944-1.968 0-3.264.944-3.456 2.544h1.312c.16-.832.928-1.376 2.08-1.376 1.28 0 2.032.64 2.032 1.696v.56h-2.4c-2.144 0-3.28.912-3.28 2.544 0 1.488 1.216 2.384 3.008 2.384 1.408 0 2.224-.624 2.736-1.36.016.8.384 1.264 1.472 1.264h.72v-1.2h-.416zm-1.84-2.128c0 1.36-.944 2.304-2.576 2.304-1.088 0-1.776-.544-1.776-1.344 0-.928.656-1.36 1.824-1.36h2.528v.4zm3.409.64c.032 1.792 1.488 2.784 3.6 2.784 1.808 0 3.264-.944 3.264-2.464 0-1.808-1.488-2.16-3.344-2.384-1.184-.144-2.048-.256-2.048-1.152 0-.752.768-1.232 1.904-1.232 1.12 0 1.888.624 1.984 1.456h1.344c-.128-1.696-1.472-2.56-3.328-2.576-1.84-.016-3.2.96-3.2 2.448 0 1.696 1.456 2.064 3.28 2.288 1.216.144 2.112.224 2.112 1.248 0 .752-.816 1.248-1.968 1.248-1.36 0-2.208-.704-2.256-1.664h-1.344zm12.56 2.784c1.888 0 3.232-1.2 3.552-2.832h-1.328c-.272 1.056-1.168 1.664-2.32 1.664-1.552 0-2.528-1.088-2.576-2.64v-.112h6.336c.016-.192.032-.384.032-.56-.064-2.416-1.568-3.872-3.872-3.872s-3.872 1.696-3.872 4.176c0 2.496 1.6 4.176 4.048 4.176zm-2.592-5.008c.128-1.328 1.232-2.192 2.432-2.192 1.36 0 2.32.784 2.448 2.192h-4.88zm14.697-2c-.496-.784-1.424-1.344-2.8-1.344-2.256 0-3.92 1.68-3.92 4.176 0 2.656 1.664 4.176 3.92 4.176 1.376 0 2.256-.656 2.8-1.408l.176 1.312h1.136V46.8h-1.312v4.288zm-2.672 5.84c-1.616 0-2.704-1.232-2.704-3.008s1.088-3.008 2.704-3.008c1.6 0 2.688 1.248 2.688 3.04 0 1.744-1.088 2.976-2.688 2.976zm14.679 1.168c2.384 0 4.048-1.696 4.048-4.176 0-2.48-1.664-4.176-4.048-4.176-2.384 0-4.048 1.696-4.048 4.176 0 2.48 1.664 4.176 4.048 4.176zm0-1.168c-1.616 0-2.704-1.264-2.704-3.008s1.088-3.008 2.704-3.008 2.704 1.264 2.704 3.008-1.088 3.008-2.704 3.008zm10.033-7.184c-1.376 0-2.208.576-2.688 1.2l-.176-1.104h-1.136V58h1.312v-4.08c0-1.84.928-2.976 2.464-2.976 1.424 0 2.208.896 2.208 2.592V58h1.312v-4.544c0-2.704-1.456-3.712-3.296-3.712zM506.504 79.872c0 1.44.56 2.128 2.128 2.128h1.424v-1.2h-1.296c-.704 0-.944-.256-.944-.944V75.04h2.112v-1.2h-2.112v-2.288h-1.312v2.288h-1.472v1.2h1.472v4.832zm9.169-6.128c-1.376 0-2.208.672-2.688 1.44V70.8h-1.312V82h1.312v-4.08c0-1.84.944-2.976 2.464-2.976 1.408 0 2.224.896 2.224 2.592V82h1.312v-4.544c0-2.704-1.488-3.712-3.312-3.712zm9.131 8.352c1.888 0 3.232-1.2 3.552-2.832h-1.328c-.272 1.056-1.168 1.664-2.32 1.664-1.552 0-2.528-1.088-2.576-2.64v-.112h6.336c.016-.192.032-.384.032-.56-.064-2.416-1.568-3.872-3.872-3.872s-3.872 1.696-3.872 4.176c0 2.496 1.6 4.176 4.048 4.176zm-2.592-5.008c.128-1.328 1.232-2.192 2.432-2.192 1.36 0 2.32.784 2.448 2.192h-4.88zm8.937-4.624c.48 0 .848-.352.848-.848a.824.824 0 00-.848-.848.824.824 0 00-.848.848c0 .496.368.848.848.848zM530.477 82h1.312v-8.16h-1.312V82zm7.365-8.16c-1.456 0-2.08.608-2.464 1.232l-.176-1.232h-1.136V82h1.312v-4.16c0-1.296.464-2.72 2.176-2.72h.656v-1.28h-.368zm6.653 8.16h1.312V70.8h-1.312V82zm4.261-9.536c.48 0 .848-.352.848-.848a.824.824 0 00-.848-.848.824.824 0 00-.848.848c0 .496.368.848.848.848zM548.084 82h1.312v-8.16h-1.312V82zm3.59 0h1.312v-2.144l1.648-1.696 2.704 3.84h1.584l-3.408-4.784 3.184-3.376h-1.616l-4.096 4.336V70.8h-1.312V82zm11.943.096c1.888 0 3.232-1.2 3.552-2.832h-1.328c-.272 1.056-1.168 1.664-2.32 1.664-1.552 0-2.528-1.088-2.576-2.64v-.112h6.336c.016-.192.032-.384.032-.56-.064-2.416-1.568-3.872-3.872-3.872s-3.872 1.696-3.872 4.176c0 2.496 1.6 4.176 4.048 4.176zm-2.592-5.008c.128-1.328 1.232-2.192 2.432-2.192 1.36 0 2.32.784 2.448 2.192h-4.88zM569.29 82h1.312V70.8h-1.312V82zm4.261-9.536c.48 0 .848-.352.848-.848a.824.824 0 00-.848-.848.824.824 0 00-.848.848c0 .496.368.848.848.848zM572.879 82h1.312v-8.16h-1.312V82zm7.59-8.256c-1.376 0-2.208.672-2.688 1.44V70.8h-1.312V82h1.312v-4.08c0-1.84.944-2.976 2.464-2.976 1.408 0 2.224.896 2.224 2.592V82h1.312v-4.544c0-2.704-1.488-3.712-3.312-3.712zm9.13 8.352c2.384 0 4.048-1.696 4.048-4.176 0-2.48-1.664-4.176-4.048-4.176-2.384 0-4.048 1.696-4.048 4.176 0 2.48 1.664 4.176 4.048 4.176zm0-1.168c-1.616 0-2.704-1.264-2.704-3.008s1.088-3.008 2.704-3.008 2.704 1.264 2.704 3.008-1.088 3.008-2.704 3.008zm9.793 1.168c2.384 0 4.048-1.696 4.048-4.176 0-2.48-1.664-4.176-4.048-4.176-2.384 0-4.048 1.696-4.048 4.176 0 2.48 1.664 4.176 4.048 4.176zm0-1.168c-1.616 0-2.704-1.264-2.704-3.008s1.088-3.008 2.704-3.008 2.704 1.264 2.704 3.008-1.088 3.008-2.704 3.008zm12.464-5.84c-.496-.784-1.424-1.344-2.8-1.344-2.256 0-3.92 1.68-3.92 4.176 0 2.656 1.664 4.176 3.92 4.176 1.376 0 2.256-.656 2.8-1.408l.176 1.312h1.136V70.8h-1.312v4.288zm-2.672 5.84c-1.616 0-2.704-1.232-2.704-3.008s1.088-3.008 2.704-3.008c1.6 0 2.688 1.248 2.688 3.04 0 1.744-1.088 2.976-2.688 2.976zm10.583-1.616c.032 1.792 1.488 2.784 3.6 2.784 1.808 0 3.264-.944 3.264-2.464 0-1.808-1.488-2.16-3.344-2.384-1.184-.144-2.048-.256-2.048-1.152 0-.752.768-1.232 1.904-1.232 1.12 0 1.888.624 1.984 1.456h1.344c-.128-1.696-1.472-2.56-3.328-2.576-1.84-.016-3.2.96-3.2 2.448 0 1.696 1.456 2.064 3.28 2.288 1.216.144 2.112.224 2.112 1.248 0 .752-.816 1.248-1.968 1.248-1.36 0-2.208-.704-2.256-1.664h-1.344zm12.464 2.784c1.984 0 3.312-1.12 3.632-2.88h-1.392c-.256 1.04-1.056 1.712-2.224 1.712-1.568 0-2.624-1.216-2.624-2.992s1.056-3.024 2.624-3.024c1.2 0 2 .656 2.24 1.744h1.376c-.336-1.792-1.6-2.912-3.6-2.912-2.368 0-3.984 1.696-3.984 4.192 0 2.544 1.568 4.16 3.952 4.16zm9.311 0c2.384 0 4.048-1.696 4.048-4.176 0-2.48-1.664-4.176-4.048-4.176-2.384 0-4.048 1.696-4.048 4.176 0 2.48 1.664 4.176 4.048 4.176zm0-1.168c-1.616 0-2.704-1.264-2.704-3.008s1.088-3.008 2.704-3.008 2.704 1.264 2.704 3.008-1.088 3.008-2.704 3.008zm9.808-7.088c-1.456 0-2.08.608-2.464 1.232l-.176-1.232h-1.136V82h1.312v-4.16c0-1.296.464-2.72 2.176-2.72h.656v-1.28h-.368zm5.277 8.256c1.888 0 3.232-1.2 3.552-2.832h-1.328c-.272 1.056-1.168 1.664-2.32 1.664-1.552 0-2.528-1.088-2.576-2.64v-.112h6.336c.016-.192.032-.384.032-.56-.064-2.416-1.568-3.872-3.872-3.872s-3.872 1.696-3.872 4.176c0 2.496 1.6 4.176 4.048 4.176zm-2.592-5.008c.128-1.328 1.232-2.192 2.432-2.192 1.36 0 2.32.784 2.448 2.192h-4.88zm7.897 2.224c.032 1.792 1.488 2.784 3.6 2.784 1.808 0 3.264-.944 3.264-2.464 0-1.808-1.488-2.16-3.344-2.384-1.184-.144-2.048-.256-2.048-1.152 0-.752.768-1.232 1.904-1.232 1.12 0 1.888.624 1.984 1.456h1.344c-.128-1.696-1.472-2.56-3.328-2.576-1.84-.016-3.2.96-3.2 2.448 0 1.696 1.456 2.064 3.28 2.288 1.216.144 2.112.224 2.112 1.248 0 .752-.816 1.248-1.968 1.248-1.36 0-2.208-.704-2.256-1.664h-1.344zm8.516 1.888c0 .544.384.896.912.896s.912-.352.912-.896-.384-.896-.912-.896-.912.352-.912.896z" fill="#262626"/><path stroke="#333293" d="M289.5 143v129M618.5 143v83"/><rect x="156" y="144" width="22" height="22" rx="4" fill="#EBEBF8"/><rect x="156.5" y="144.5" width="21" height="21" rx="3.5" stroke="#917EF3" stroke-opacity=".25"/><rect x="156" y="174" width="22" height="22" rx="4" fill="#EBEBF8"/><rect x="156.5" y="174.5" width="21" height="21" rx="3.5" stroke="#917EF3" stroke-opacity=".25"/><rect x="156" y="204" width="22" height="22" rx="4" fill="#EBEBF8"/><rect x="156.5" y="204.5" width="21" height="21" rx="3.5" stroke="#917EF3" stroke-opacity=".25"/><path d="M167.109 151.264c0 .49-.224.84-.686.84h-1.596v1.05h1.582c.308 0 .532-.056.672-.182V160h1.176v-9.8h-1.148v1.064zM163.562 190h6.748v-1.078h-5.124l2.94-2.492c1.162-.994 2.114-1.918 2.114-3.388 0-1.764-1.232-2.926-3.346-2.926-1.974 0-3.276 1.316-3.276 3.164v.252h1.176v-.182c0-1.344.84-2.184 2.1-2.184 1.302 0 2.142.7 2.142 1.932 0 1.064-.756 1.82-1.666 2.604l-3.808 3.304V190zM168.594 214.904c.938-.252 1.582-.966 1.582-2.198 0-1.54-1.274-2.59-3.29-2.59-1.932 0-3.276 1.19-3.29 2.912h1.162c.014-1.12.91-1.862 2.142-1.862 1.176 0 2.072.616 2.072 1.61 0 .994-.728 1.722-2.184 1.722h-.77v1.022h.84c1.526 0 2.366.658 2.366 1.68 0 1.12-.98 1.834-2.254 1.834-1.386 0-2.394-.77-2.408-2.058H163.4c0 1.946 1.372 3.108 3.5 3.108s3.528-1.134 3.528-2.8c0-1.498-.938-2.212-1.834-2.38z" fill="#262626"/><path d="M421 190h75" stroke="#000" stroke-width="1.5" stroke-linecap="round" stroke-dasharray="0.5 8"/><path d="M511.5 190a6.5 6.5 0 11-13 0 6.5 6.5 0 0113 0z" fill="#333293" stroke="#333293"/><path d="M508.471 189.946a.57.57 0 00-.049-.234.71.71 0 00-.147-.205l-3.803-3.721a.547.547 0 00-.401-.161c-.104 0-.2.026-.288.078a.568.568 0 00-.21.2.577.577 0 00.103.699l3.428 3.344-3.428 3.345a.579.579 0 00-.103.698.544.544 0 00.21.205.556.556 0 00.288.078c.16 0 .293-.055.401-.166l3.803-3.72a.723.723 0 00.147-.205.571.571 0 00.049-.235z" fill="#FBFBFB"/></svg>